<svg xmlns="http://www.w3.org/2000/svg" width="100" height="100">
  <g fill="none" fill-rule="evenodd" transform="translate(6 17)">
    <g fill="#D8F9FB" transform="translate(.726 7.237)">
      <circle cx="53.193" cy="10.924" r="10.924"/>
      <circle cx="28.048" cy="16.438" r="7.14"/>
      <path fill-rule="nonzero" d="M48.0653677,28.0998252 C49.6138549,28.0979914 51.1580571,28.2813866 52.6728,28.6475656 C49.2282061,26.2218583 45.2565586,24.9478731 41.2093883,24.9698804 C29.1294739,25.0010576 19.3527403,36.002936 19.38,50.9796 L26.3731561,50.9637058 C27.6211585,37.61498 36.8494139,28.1310025 48.0653677,28.0998252 L48.0653677,28.0998252 Z"/>
      <path fill-rule="nonzero" d="M28.4164422 28.8129404C29.934567 28.8112864 31.4484906 28.9767016 32.9335327 29.3069807 29.5564799 27.1190879 25.6627078 25.9700032 21.6948938 25.9898529 9.85184049 26.0179735.266807485 35.9412364.293532703 49.4496L7.14956805 49.4352641C8.37309984 37.3952369 17.4204091 28.841061 28.4164422 28.8129404L28.4164422 28.8129404zM65.9225999 46.5689206C65.9225999 42.847334 67.9549914 39.4222025 71.2215193 37.6394968 74.4880471 35.8563939 78.4677994 35.9998528 81.5976426 38.0134438 79.5084315 34.7675366 75.7631096 32.9836389 71.9271942 33.40726 68.0908815 33.830881 64.8251483 36.3892981 63.4944584 40.0123313 62.1637684 43.6357619 62.997784 47.6999014 65.6480383 50.5062918 66.211863 51.1039711 66.8472089 51.630517 67.5397716 52.0728155 66.4800672 50.4331715 65.9182291 48.5213131 65.9225999 46.5689206L65.9225999 46.5689206z"/>
    </g>
    <path fill="#34798B" fill-rule="nonzero" d="M45.4308.5202C53.1878934.5202 59.4762 6.80834604 59.4762 14.5656 59.4762 22.3225237 53.1877237 28.6109998 45.4303125 28.6109998 37.6764387 28.6037333 31.3926671 22.3198013 31.3854 14.5656 31.3854 6.80834604 37.6737066.5202 45.4308.5202zM45.4308 4.11978638C39.6646548 4.12645218 34.9916523 8.7994547 34.9849864 14.5655999 34.9849864 20.3348759 39.6615241 25.0114136 45.4308 25.0114136 51.2000759 25.0114136 55.8766136 20.3348759 55.8766136 14.5655999 55.8766136 8.79632404 51.2000759 4.11978638 45.4308 4.11978638zM44.9113316 30.9001485L44.8649903 30.9001461C37.6065104 30.9156158 30.8752628 33.73863 25.8898016 38.8641956 20.8270625 44.0348237 18.0528846 51.1050607 18.0682169 58.7792452 18.0720132 59.2761624 18.2661378 59.750881 18.610483 60.1067109 18.9676475 60.4637481 19.4488095 60.6603121 19.9488155 60.6555519L58.7743784 60.5763781 58.7743784 56.8231126 21.8896692 56.9005164 21.8698717 57.2307951C22.1955991 51.1426696 24.5526233 45.6028739 28.5746121 41.4903498 32.7390588 37.2083779 38.3404036 34.7942398 44.3880561 34.6592938L44.9127376 34.6533838C50.6685744 34.6233489 54.3825972 36.1887438 58.7398765 40.3706352L58.9643599 40.5860828 61.5735756 37.8844273 61.3476824 37.6676258C56.2935469 32.8169052 51.6448113 30.8698172 44.9113316 30.9001485z"/>
    <path fill="#34798B" fill-rule="nonzero" d="M27.54,31.7478199 C26.666193,31.657311 25.7537127,31.6159572 24.7933479,31.6203106 L24.7523068,31.6203084 C18.3239924,31.6340957 12.3626099,34.1500854 7.94734495,38.7182063 C3.46364058,43.3264888 1.00675044,49.6277831 1.02005374,56.4673411 C1.02369124,56.9102147 1.19561347,57.333304 1.50057525,57.6504346 C1.81689023,57.9686413 2.24302084,58.1438275 2.68584029,58.1399365 L15.390675,58.0690219 L15.390675,54.7239529 L4.40471498,54.7929385 L4.38718175,55.0872968 C4.67565508,49.6613018 6.76310217,44.7240015 10.3250887,41.0587461 C14.0132401,37.2424715 18.9739489,35.0908895 24.3299204,34.9706199 L24.7945931,34.9653526 C25.605121,34.9610964 26.3699313,34.9927893 27.0985833,35.0640898"/>
    <path fill="#34798B" fill-rule="nonzero" d="M27.5632134,24.8806814 L23.0867971,20.297398 C24.4931592,18.2027065 25.3250053,15.6475915 25.3250053,12.9647993 C25.3250053,5.82928175 19.6345849,0 12.6625026,0 C5.693362,0 0,5.82626988 0,12.9647993 C0,20.1003168 5.69042035,25.9295985 12.6625026,25.9295985 C15.6675848,25.9295985 18.417895,24.8170392 20.5908753,23.0497251 L25.0023196,27.5664855 C25.38701,27.9603598 25.8341656,28.0908 26.2812957,28.0908 C26.7284385,28.0908 27.1755558,27.8938629 27.5602718,27.5664855 C28.2672258,26.7813035 28.2672258,25.6022212 27.5627702,24.8809433 L27.5632134,24.8806814 Z M3.64763977,12.9647993 C3.64763977,7.85718823 7.676926,3.73144745 12.6657001,3.73144745 C17.6542184,3.73144745 21.6837604,7.85692633 21.6837604,12.9647993 C21.6837604,18.0726722 17.6544742,22.1981511 12.6657001,22.1981511 C7.67718179,22.1981511 3.64763977,18.0062146 3.64763977,12.9647993 L3.64763977,12.9647993 Z" transform="translate(60.18 36.72)"/>
    <path stroke="#34798B" stroke-linecap="square" stroke-width="3.213" d="M29.0107165,5.89034307 C27.7814075,5.38036982 26.4406443,5.1 25.0370989,5.1 C19.0961172,5.1 14.28,10.1233651 14.28,16.32 C14.28,22.5166349 19.0961172,27.54 25.0370989,27.54 C26.6604947,27.54 28.1998996,27.1649172 29.58,26.4933059" transform="rotate(-3 21.93 16.32)"/>
  </g>
</svg>
