<?xml version="1.0" encoding="UTF-8"?>
<svg width="32px" height="32px" viewBox="0 0 32 32" version="1.1" xmlns="http://www.w3.org/2000/svg" xmlns:xlink="http://www.w3.org/1999/xlink">
    <title>Shape</title>
    <g id="Symbols" stroke="none" stroke-width="1" fill="none" fill-rule="evenodd">
        <g id="Footer" transform="translate(-92.000000, -684.000000)" fill="#FFFFFF" fill-rule="nonzero">
            <g id="Group-17" transform="translate(0.000000, 192.000000)">
                <g id="Group-18" transform="translate(0.000000, 308.000000)">
                    <g id="Group-15" transform="translate(0.000000, 91.000000)">
                        <g id="Group-12" transform="translate(92.000000, 80.000000)">
                            <g id="cc" transform="translate(0.000000, 13.000000)">
                                <path d="M15.9707495,0 C20.4463195,0 24.256879,1.56252441 27.3994281,4.68607322 C28.9034516,6.19059673 30.0469695,7.9101236 30.8279817,9.8431538 C31.6084939,11.776684 32,13.8287161 32,16.00025 C32,18.1907842 31.613494,20.2433163 30.8429819,22.1568462 C30.0714699,24.0708761 28.9329521,25.7619025 27.4289286,27.2284254 C25.8674042,28.7709495 24.0958765,29.952468 22.1143455,30.7714808 C20.1338146,31.5904936 18.0857826,32 15.9717496,32 C13.8577165,32 11.8336849,31.5959937 9.90015469,30.785481 C7.96712449,29.9764684 6.2335974,28.8049501 4.70007344,27.2719261 C3.16654948,25.7389022 2.00003125,24.0098752 1.20001875,22.0858451 C0.40000625,20.161815 0,18.1337833 0,16.00025 C0,13.885717 0.40450632,11.8526852 1.21401897,9.90015469 C2.02353162,7.94762418 3.20005,6.20009688 4.7425741,4.65707277 C7.79012172,1.55302427 11.5326802,0 15.9707495,0 Z M16.0287504,2.88604509 C12.3716933,2.88604509 9.29514524,4.16256504 6.79960624,6.71460492 C5.5420866,7.99112486 4.57557149,9.42414725 3.89956093,11.0146721 C3.22255035,12.605197 2.88504508,14.2672229 2.88504508,16.00075 C2.88504508,17.7152768 3.22255035,19.3678026 3.89956093,20.9573275 C4.5760715,22.5488523 5.5420866,23.9678745 6.79960624,25.215394 C8.05662588,26.4634135 9.47514805,27.4149284 11.0571728,28.0729386 C12.6376975,28.7299489 14.2952234,29.058454 16.0287504,29.058454 C17.7427772,29.058454 19.4038032,28.7259488 21.0153284,28.0589384 C22.6248535,27.391428 24.0758762,26.430413 25.3718964,25.1733933 C27.8669354,22.7353552 29.1139549,19.6783075 29.1139549,16.00125 C29.1139549,14.2297223 28.7899498,12.5536962 28.1424397,10.9726714 C27.4959296,9.39164674 26.5524149,7.98262473 25.3153956,6.74360537 C22.7423553,4.17206519 19.647807,2.88604509 16.0287504,2.88604509 Z M15.8282473,13.3437085 L13.6847138,14.4582259 C13.4557102,13.9827185 13.1752059,13.6487133 12.8422007,13.4582103 C12.5086954,13.2682073 12.1991906,13.1727058 11.9131861,13.1727058 C10.4851638,13.1727058 9.77015266,14.1152206 9.77015266,16.00125 C9.77015266,16.8582634 9.95115549,17.5432741 10.3126611,18.0577822 C10.6746668,18.5722902 11.2081751,18.8297942 11.9131861,18.8297942 C12.8467007,18.8297942 13.503711,18.3722871 13.885217,17.4582728 L15.8562478,18.4582884 C15.4372412,19.2398006 14.8562321,19.8538102 14.1132205,20.3013172 C13.3712089,20.7493242 12.5516961,20.9728277 11.6561821,20.9728277 C10.2276598,20.9728277 9.07464179,20.5353209 8.1986281,19.6583072 C7.32261442,18.7822935 6.88460757,17.5632744 6.88460757,16.00175 C6.88460757,14.4777262 7.32761449,13.2687073 8.21312833,12.3731933 C9.09864217,11.4781793 10.2176597,11.0301714 11.5706808,11.0301714 C13.5522118,11.0291723 14.9707339,11.8006844 15.8282473,13.3437085 Z M25.0568915,13.3437085 L22.9423585,14.4582259 C22.7138549,13.9827185 22.4323505,13.6487133 22.0993453,13.4582103 C21.7653401,13.2682073 21.4458351,13.1727058 21.1423303,13.1727058 C19.713808,13.1727058 18.9987969,14.1152206 18.9987969,16.00125 C18.9987969,16.8582634 19.1802997,17.5432741 19.5418053,18.0577822 C19.903311,18.5722902 20.4363193,18.8297942 21.1423303,18.8297942 C22.0748449,18.8297942 22.7323552,18.3722871 23.1128611,17.4582728 L25.1128924,18.4582884 C24.6753856,19.2398006 24.0843763,19.8538102 23.3423647,20.3013172 C22.5993531,20.7493242 21.7898405,20.9728277 20.9138268,20.9728277 C19.4658042,20.9728277 18.3092861,20.5353209 17.4432726,19.6583072 C16.575259,18.7822935 16.1422522,17.5632744 16.1422522,16.00175 C16.1422522,14.4777262 16.5847591,13.2687073 17.471273,12.3731933 C18.3562868,11.4781793 19.4753043,11.0301714 20.8278254,11.0301714 C22.8088564,11.0291723 24.2193784,11.8006844 25.0568915,13.3437085 Z" id="Shape"></path>
                            </g>
                        </g>
                    </g>
                </g>
            </g>
        </g>
    </g>
</svg>