<svg xmlns="http://www.w3.org/2000/svg" width="900" height="110" viewBox="-50 0 900 100">
  <g fill="none" transform="scale(0.7) translate(18 12)">
    <rect width="44.46" height="10.26" y="2.565" fill="#D8F9FB" rx="4.275"/>
    <path fill="#34798B" d="M43.4032916,27.245838 C42.5061555,27.245838 41.6602523,27.4427344 40.9176874,27.7903348 C39.9609666,26.522635 38.3289941,25.6862111 36.4802481,25.6862111 C35.5255217,25.6862111 34.6285103,25.9093456 33.8524134,26.2997209 C32.8809834,25.1330049 31.3171968,24.3747442 29.5570798,24.3747442 C29.0031167,24.3747442 28.4682256,24.4499309 27.9653707,24.5892797 L27.9653707,23.1172971 L39.1852027,23.1172971 C41.879104,23.1172971 44.0707737,21.1789808 44.0707737,18.79649 L44.0707737,4.32080704 C44.0707737,1.93831627 41.879104,0 39.1852027,0 L4.88557108,0 C2.1916697,0 0,1.93831627 0,4.32080704 L0,18.7966003 C0,21.1790911 2.1916697,23.1174073 4.88557108,23.1174073 L17.3027019,23.1174073 L17.3027019,33.3615334 C17.0136288,33.105105 16.6889047,32.8765685 16.3323938,32.6807745 C15.1838302,32.0497358 13.8369418,31.830129 12.5162308,32.0550275 C11.0961705,32.1054092 9.8217062,32.6535441 8.99387783,33.5763996 C8.1242903,34.545668 7.82225324,35.8455592 8.16492756,37.142584 L10.6221107,46.4430184 C12.0237222,54.2026776 18.8679843,60.0083659 19.1594258,60.2523367 C19.5067123,60.543051 19.9666862,60.705 20.4448596,60.705 L41.4755148,60.705 C42.1050184,60.705 42.6921396,60.4248691 43.0379302,59.9597482 C46.7627216,54.9489217 48.732133,49.1307758 48.7330055,43.134475 L48.735,31.9609891 C48.735,29.3609862 46.343011,27.245838 43.4032916,27.245838 Z M21.2304303,57.3977796 C19.7234859,55.9801474 15.2825563,51.4023608 14.3055169,45.8701887 C14.2982869,45.8295086 14.2894365,45.7891591 14.2788409,45.7491404 L11.8062007,36.3900561 C11.7236796,36.0774031 11.7651894,35.8081864 11.9232509,35.6319056 C12.0813124,35.4556249 12.3516873,35.3635709 12.7130598,35.3331434 C12.8949302,35.3178195 12.970346,35.2987472 13.1385045,35.2897072 C13.5627026,35.2669968 13.9976211,35.2918018 14.3588689,35.4902416 C14.7201167,35.6886815 14.9721674,35.9995706 15.068899,36.3656921 L17.2016073,44.4385555 C17.3797381,45.1125895 18.0136046,45.6172882 18.7902001,45.7031685 L18.9400344,45.7197052 C19.4724324,45.7785757 20.0074481,45.6325019 20.4095825,45.3186362 C20.8117169,45.0047705 21.0419531,44.5532097 21.0419531,44.0788282 L21.0419531,17.797125 C21.0419531,17.0208944 21.7560969,16.3893045 22.633787,16.3893045 C23.511477,16.3893045 24.2256208,17.0208944 24.2256208,17.797125 L24.2256208,29.0898953 L24.2256208,33.3040961 C24.2256208,34.2173603 25.0627982,34.9577614 26.0954334,34.9577614 C27.1280686,34.9577614 27.965246,34.2173603 27.965246,33.3040961 L27.965246,29.0898953 C27.965246,28.3136648 28.6792651,27.6821851 29.5569552,27.6821851 C30.4346452,27.6821851 31.148789,28.3136648 31.148789,29.0898953 L31.148789,30.4013622 L31.148789,33.4923934 C31.148789,34.4056577 31.9859664,35.1460588 33.0186016,35.1460588 C34.0512368,35.1460588 34.8884142,34.4056577 34.8884142,33.4923934 L34.8884142,30.4013622 C34.8884142,29.6251317 35.602558,28.9935417 36.4802481,28.9935417 C37.3579381,28.9935417 38.0719572,29.6251317 38.0719572,30.4013622 L38.0719572,31.9608788 L38.0719572,34.6472031 C38.0719572,35.5604673 38.9091347,36.3008684 39.9417698,36.3008684 C40.974405,36.3008684 41.8115825,35.5604673 41.8115825,34.6472031 L41.8115825,31.9608788 C41.8115825,31.1846483 42.5257262,30.5530584 43.4034163,30.5530584 C44.2811063,30.5530584 44.9952501,31.1846483 44.9952501,31.9605481 L44.9932556,43.1341443 C44.9925077,48.1882968 43.4238596,53.1008955 40.4478658,57.3977796 L21.2304303,57.3977796 Z M3.73962525,18.7966003 L3.73962525,4.32080704 C3.73962525,3.7619784 4.25369907,3.30733068 4.88557108,3.30733068 L39.1852027,3.30733068 C39.8170747,3.30733068 40.3311485,3.7619784 40.3311485,4.32080704 L40.3311485,18.7966003 C40.3311485,19.3554289 39.8170747,19.8100767 39.1852027,19.8100767 L27.9653707,19.8100767 L27.9653707,17.7970147 C27.9653707,15.1971221 25.573631,13.0818636 22.6339116,13.0818636 C19.6941922,13.0818636 17.3024526,15.1971221 17.3024526,17.7970147 L17.3024526,19.8100767 L4.88532177,19.8100767 C4.25369907,19.8100767 3.73962525,19.3554289 3.73962525,18.7966003 Z"/>
  </g>
	<g fill="none" transform="translate(55 12)">
		<path fill="white" d="M17.9685,0 C13.2028755,0 8.63244568,1.89289636 5.26344651,5.26344651 C1.89285853,8.63252134 0,13.2028755 0,17.9685 C0,22.7341245 1.89289636,27.3045543 5.26344651,30.6735535 C8.63252134,34.0441415 13.2028755,35.937 17.9685,35.937 C22.7341245,35.937 27.3045543,34.0441036 30.6735535,30.6735535 C34.0441415,27.3044787 35.937,22.7341245 35.937,17.9685 C35.937,13.2028755 34.0441036,8.63244568 30.6735535,5.26344651 C27.3044787,1.89285853 22.7341245,0 17.9685,0 Z"/>
		<polygon fill="#34798B" points="20.457 27.426 17.775 24.744 22.826 19.693 7 19.693 7 16.244 22.826 16.244 17.775 11.193 20.457 8.511 29.914 17.968"/>
	</g>
	<g fill="none" fill-rule="evenodd" transform="scale(0.7) translate(145 14)">
		<path fill="#D8F9FB" d="M45.15,41.90999 C45.15,50.4640361 36.1687593,56.0712434 33.0715227,57.75 C29.9673317,56.0772532 21,50.5000953 21,41.90999 L21,32.6963609 C21,32.4574687 21.168895,32.2536339 21.401374,32.2110641 C25.7866834,31.4147566 29.7040543,29.070407 31.6488306,27.7442293 C32.0745455,27.4532516 32.5678182,27.3 33.075,27.3 C33.5821819,27.3 34.0754546,27.4537524 34.5016661,27.7442293 C36.4464426,29.070407 40.3633166,31.4147566 44.748626,32.2110641 C44.981105,32.2536339 45.15,32.4574687 45.15,32.6963609 L45.15,41.90999 Z"/>
		<path fill="#34798B" fill-rule="nonzero" d="M53.5861186,25.6698123 C50.4041913,25.0965563 47.3876274,23.2254453 46.2384393,22.4476122 C45.1138798,21.6864972 43.8050456,21.2843822 42.4531113,21.2843822 C41.1016168,21.2843822 39.7927826,21.6864972 38.6682231,22.4476122 C37.519035,23.2254453 34.5020313,25.0965563 31.3201041,25.6698123 C28.9685124,26.0939249 27.2616624,28.1366166 27.2616624,30.5277495 L27.2616624,38.6215253 C27.2616624,50.5873085 40.9516463,56.8500089 41.5343765,57.1108997 L42.4531113,57.5218138 L43.3722859,57.1108997 C43.9550162,56.8500089 57.645,50.5873085 57.645,38.6215253 L57.645,30.5277495 C57.645,28.1366166 55.93815,26.0939249 53.5861186,25.6698123 L53.5861186,25.6698123 Z M53.1436833,38.6215253 C53.1436833,46.1358858 45.1921636,51.0615756 42.4500327,52.5362908 C39.7017447,51.0668549 31.7625392,46.1675622 31.7625392,38.6215253 L31.7625392,30.5277495 C31.7625392,30.317893 31.91207,30.1388329 32.1178948,30.1014371 C36.0004178,29.4019154 39.4686526,27.3425053 41.1904556,26.1775155 C41.5673613,25.9219041 42.0040791,25.7872792 42.4531113,25.7872792 C42.9021435,25.7872792 43.3388614,25.922344 43.7162067,26.1775155 C45.4380098,27.3425053 48.9058048,29.4019154 52.7883278,30.1014371 C52.9941525,30.1388329 53.1436833,30.317893 53.1436833,30.5277495 L53.1436833,38.6215253 Z M31.5848615,55.9551488 C32.3039287,56.5723999 33.0212367,57.135537 33.7152355,57.645 L12.4070976,57.645 C8.6842206,57.645 5.65534255,54.6146185 5.65534255,50.8904346 L5.65534255,27.2505556 L3.03371584,29.6430083 L0,26.31654 L28.8365735,0 L47.2253426,16.7814852 L40.5465936,16.7814852 L28.8365735,6.09507913 L10.1566592,23.1431745 L10.1566592,50.8904346 C10.1566592,52.131976 11.165992,53.1421031 12.4070976,53.1421031 L28.6997968,53.1421031 C29.570154,54.1113148 30.5315491,55.0506099 31.5848615,55.9551488 Z"/>
	</g>
	<g fill="none" transform="translate(150 12)">
		<path fill="white" d="M17.9685,0 C13.2028755,0 8.63244568,1.89289636 5.26344651,5.26344651 C1.89285853,8.63252134 0,13.2028755 0,17.9685 C0,22.7341245 1.89289636,27.3045543 5.26344651,30.6735535 C8.63252134,34.0441415 13.2028755,35.937 17.9685,35.937 C22.7341245,35.937 27.3045543,34.0441036 30.6735535,30.6735535 C34.0441415,27.3044787 35.937,22.7341245 35.937,17.9685 C35.937,13.2028755 34.0441036,8.63244568 30.6735535,5.26344651 C27.3044787,1.89285853 22.7341245,0 17.9685,0 Z"/>
		<polygon fill="#34798B" points="20.457 27.426 17.775 24.744 22.826 19.693 7 19.693 7 16.244 22.826 16.244 17.775 11.193 20.457 8.511 29.914 17.968"/>
	</g>
	<g fill="none" fill-rule="evenodd" transform="scale(0.72) translate(275 14)">
		<rect width="31" height="28" x="18" y="17" fill="#D8F9FB" rx="2.73"/>
		<g fill="#34798B" fill-rule="nonzero">
			<path d="M36.7145408,0 L5.2854592,0 C2.36638069,0 0,2.31003829 0,5.15961494 L0,35.8403851 C0,38.6899617 2.36638069,41 5.2854592,41 L36.7145408,41 C39.6336193,41 42,38.6899617 42,35.8403851 L42,5.15961494 C42,2.31003829 39.6336193,0 36.7145408,0 Z M5.2854592,3.50128096 L36.7145408,3.50128096 C37.6527517,3.50128096 38.4133219,4.24374237 38.4133219,5.15961494 L38.4133219,35.8403851 C38.4133219,36.7562576 37.6527517,37.498719 36.7145408,37.498719 L5.2854592,37.498719 C4.34724828,37.498719 3.58667805,36.7562576 3.58667805,35.8403851 L3.58667805,5.15961494 C3.58667805,4.24374237 4.34724828,3.50128096 5.2854592,3.50128096 Z"/>
			<path d="M44.7145408,7 C47.5687509,7 49.8945546,9.20851068 49.9965142,11.9704619 L50,12.1596149 L50,42.8403851 C50,45.6266378 47.7376232,47.8970652 44.9083073,47.9965972 L44.7145408,48 L41.124524,48 L41.124524,44.498719 L44.7145408,44.498719 C45.6101058,44.498719 46.3438122,43.8222201 46.4086624,42.9641485 L46.4133219,42.8403851 L46.4133219,12.1596149 C46.4133219,11.2853729 45.720323,10.5691357 44.8413228,10.5058295 L44.7145408,10.501281 L13.2854592,10.501281 C12.3898942,10.501281 11.6561878,11.1777799 11.5913376,12.0358515 L11.5866781,12.1596149 L11.5866781,16.3359681 L8,16.3359681 L8,12.1596149 C8,9.37336222 10.2623768,7.10293481 13.0916927,7.00340285 L13.2854592,7 L44.7145408,7 Z" transform="matrix(1 0 0 -1 0 55)"/>
			<path d="M51.7145408,14 C54.5687509,14 56.8945546,16.2085107 56.9965142,18.9704619 L57,19.1596149 L57,49.8403851 C57,52.6266378 54.7376232,54.8970652 51.9083073,54.9965972 L51.7145408,55 L48.124524,55 L48.124524,51.498719 L51.7145408,51.498719 C52.6101058,51.498719 53.3438122,50.8222201 53.4086624,49.9641485 L53.4133219,49.8403851 L53.4133219,19.1596149 C53.4133219,18.2853729 52.720323,17.5691357 51.8413228,17.5058295 L51.7145408,17.501281 L20.2854592,17.501281 C19.3898942,17.501281 18.6561878,18.1777799 18.5913376,19.0358515 L18.5866781,19.1596149 L18.5866781,23.3359681 L15,23.3359681 L15,19.1596149 C15,16.3733622 17.2623768,14.1029348 20.0916927,14.0034028 L20.2854592,14 L51.7145408,14 Z" transform="matrix(1 0 0 -1 0 69)"/>
		</g>
	</g>
	<g fill="none" transform="translate(250 12)">
		<path fill="white" d="M17.9685,0 C13.2028755,0 8.63244568,1.89289636 5.26344651,5.26344651 C1.89285853,8.63252134 0,13.2028755 0,17.9685 C0,22.7341245 1.89289636,27.3045543 5.26344651,30.6735535 C8.63252134,34.0441415 13.2028755,35.937 17.9685,35.937 C22.7341245,35.937 27.3045543,34.0441036 30.6735535,30.6735535 C34.0441415,27.3044787 35.937,22.7341245 35.937,17.9685 C35.937,13.2028755 34.0441036,8.63244568 30.6735535,5.26344651 C27.3044787,1.89285853 22.7341245,0 17.9685,0 Z"/>
		<polygon fill="#34798B" points="20.457 27.426 17.775 24.744 22.826 19.693 7 19.693 7 16.244 22.826 16.244 17.775 11.193 20.457 8.511 29.914 17.968"/>
	</g>
	<g fill="none" fill-rule="evenodd" transform="scale(0.8) translate(365 12)">
		<path fill="#D8F9FB" d="M37.0937164,32.9610049 C35.0205492,33.5008178 33.7046421,35.1246446 33.7046421,36.9798618 L33.7046421,37.8303365 C33.7046421,41.2300356 34.4592898,44.5526855 35.871788,47.64368 L5.45076,47.6414768 L5.45076,45.2464637 L8.36987247,45.2464637 C9.40645611,45.2464637 10.2524013,44.5502003 10.2524013,43.7019254 C10.2524013,42.8514506 9.40377493,42.157387 8.36987247,42.157387 L5.45076,42.1551838 L5.45076,39.3745861 L11.761628,39.3745861 C12.7982117,39.3745861 13.6441569,38.6783227 13.6441569,37.8300477 C13.6441569,36.979573 12.7955305,36.2855094 11.761628,36.2855094 L5.45076,36.2833062 C5.54475238,34.5823567 6.95730555,33.114924 9.03047283,32.6522337 C11.1976187,32.1895378 13.5501095,31.801759 15.9052814,31.49328 L21.4615017,40.7651354 C22.1194415,41.9240891 24.1926569,41.9240891 24.8505761,40.7651354 L30.4067964,31.49328 C32.7619683,31.7246308 35.1144591,32.1124378 37.281605,32.6522337 C37.4695897,32.6522337 37.5635821,32.7293507 37.75156,32.8064676 C37.5635752,32.8064676 37.3755905,32.8835845 37.0936202,32.9607014 L37.0937164,32.9610049 Z"/>
		<path fill="#34798B" fill-rule="nonzero" d="M21.8460404 23.714238C28.2356434 23.714238 33.4608025 18.4866765 33.4608025 12.0994759 33.4608025 5.70987298 28.233241.48471388 21.8460404.48471388 15.4564375.48471388 10.2312784 5.71227535 10.2312784 12.0994759 10.2312784 18.4866765 15.4560842 23.714238 21.8460404 23.714238zM21.8460404 4.35535912C26.1048101 4.35535912 29.5880375 7.83858655 29.5880375 12.0973562 29.5880375 16.3561258 26.1048101 19.8393532 21.8460404 19.8393532 17.5872708 19.8393532 14.1040417 16.3561258 14.1040417 12.0973562 14.1012828 7.84134221 17.5872708 4.35535912 21.8460404 4.35535912zM51.0779616 36.1904103C52.4331821 36.1904103 53.4985634 37.1485707 53.4985634 38.3674005 53.4985634 39.3255608 54.3707657 40.1075056 55.4333914 40.1075056 56.4987727 40.1075056 57.3682194 39.3230825 57.3682194 38.3674005 57.3682194 35.8428722 55.5299809 33.7528143 53.0127896 32.9708695L53.0127896 32.0102308C53.0127896 31.0520704 52.1405873 30.2701257 51.0779616 30.2701257 50.0125803 30.2701257 49.1431336 31.0545488 49.1431336 32.0102308L49.1431336 32.9683912C46.6231867 33.7528143 44.7848775 35.8403939 44.7848775 38.3649222 44.7848775 41.4975943 47.5919785 44.022059 51.0751353 44.022059 52.4303557 44.022059 53.4957371 44.9802194 53.4957371 46.1990492 53.4957371 47.417879 52.4303557 48.3760394 51.0751353 48.3760394 49.7199149 48.3760394 48.6545335 47.417879 48.6545335 46.1990492 48.6545335 45.2408888 47.7823312 44.4589441 46.7197055 44.4589441 45.6543242 44.4589441 44.7848775 45.2433672 44.7848775 46.1990492 44.7848775 48.7235774 46.623116 50.8136354 49.1403073 51.5955802L49.1403073 52.5537405C49.1403073 53.5119009 50.0125096 54.2938457 51.0751353 54.2938457 52.1405166 54.2938457 53.0099633 53.5094226 53.0099633 52.5537405L53.0099633 51.5955802C55.5271546 50.8980257 57.3653931 48.7235774 57.3653931 46.1990492 57.3653931 43.066377 54.5583627 40.5419123 51.075206 40.5419123 49.7199855 40.5419123 48.6546042 39.583752 48.6546042 38.3649222 48.6573641 37.1460923 49.7227412 36.1904103 51.0779616 36.1904103z"/>
		<path fill="#34798B" fill-rule="nonzero" d="M65.7739262,30.5667613 C62.2093692,29.4445556 58.1671757,26.7693939 55.1793116,24.6110441 C52.7708822,22.8858386 49.3051708,22.8858386 46.992564,24.6110441 C44.9713618,26.163937 42.8513141,27.4584555 40.9262157,28.4945994 C39.9622956,27.7168929 38.7100641,27.1139562 37.3616586,26.7693939 C34.4726401,26.0778122 31.4875178,25.5610003 28.4065027,25.216501 C27.6347901,25.1303636 26.8658897,25.5610507 26.4814043,26.1664571 L21.955669,34.4525847 L17.3338299,26.2521409 C16.9493586,25.5605593 16.1777022,25.21606 15.4087315,25.3021848 C12.2314017,25.6467345 9.24627937,26.1660161 6.45357553,26.8550777 C2.6006369,27.8050338 0,30.9108826 0,34.3637508 L0,48.6036425 C0,49.5535986 0.867816337,50.328848 1.92509841,50.328848 L36.5955703,50.328848 C39.1962072,54.9039219 43.0491458,58.9596008 47.8629815,61.9793248 C49.7880799,63.1877184 52.2926131,63.1877184 54.2204533,61.9793248 C63.6592917,56.0236076 69.24484,46.2727281 69.24484,36.0007524 L69.24484,35.0507963 C69.242094,33.0696734 67.8936927,31.258343 65.773645,30.5667613 L65.7739262,30.5667613 Z M36.0658146,30.5751041 C33.9343395,31.1655244 32.5814225,32.9415851 32.5814225,34.9707288 L32.5814225,35.9009356 C32.5814225,39.6193565 33.3572947,43.2535048 34.8095194,46.63428 L3.5329,46.6318703 L3.5329,44.0123247 L6.53411251,44.0123247 C7.59985006,44.0123247 8.46958747,43.2507866 8.46958747,42.3229859 C8.46958747,41.3927791 7.59709348,40.633647 6.53411251,40.633647 L3.5329,40.6312373 L3.5329,37.5899585 L10.0212612,37.5899585 C11.0869987,37.5899585 11.9567362,36.8284204 11.9567362,35.9006197 C11.9567362,34.970413 11.0842422,34.2112809 10.0212612,34.2112809 L3.5329,34.2088711 C3.62953592,32.3484577 5.08181715,30.7434531 7.21329225,30.2373856 C9.44138914,29.731312 11.8600437,29.3071789 14.2814548,28.96978 L19.9939438,39.1108718 C20.6703882,40.3784775 22.8019128,40.3784775 23.4783359,39.1108718 L29.1908249,28.96978 C31.612236,29.2228199 34.0308906,29.6469838 36.2589875,30.2373856 C36.4522593,30.2373856 36.5488952,30.3217323 36.74216,30.4060789 C36.5488882,30.4060789 36.3556163,30.4904256 36.0657156,30.5747722 L36.0658146,30.5751041 Z M65.71194,35.9233395 C65.71194,45.1060836 60.6895133,53.7750551 52.1919198,59.0957335 C51.6136817,59.4383822 50.8399178,59.4383822 50.3580468,59.0957335 C41.8604533,53.7749298 36.74216,45.1060836 36.74216,35.9233395 L36.74216,35.3237106 C36.74216,34.6359446 37.224024,33.9506849 37.9977314,33.6936733 C43.3093089,32.063636 47.6541838,29.1438417 50.2616162,27.1712684 C50.8398544,26.7429639 51.7099784,26.7429639 52.2882095,27.1712684 C54.7994228,29.1463479 59.2408692,32.0637613 64.4562276,33.6936733 C65.2299985,33.9506598 65.71194,34.5527385 65.71194,35.3237106 L65.71194,35.9233395 Z"/>
	</g>

	<g fill="none" transform="translate(350 12)">
		<path fill="white" d="M17.9685,0 C13.2028755,0 8.63244568,1.89289636 5.26344651,5.26344651 C1.89285853,8.63252134 0,13.2028755 0,17.9685 C0,22.7341245 1.89289636,27.3045543 5.26344651,30.6735535 C8.63252134,34.0441415 13.2028755,35.937 17.9685,35.937 C22.7341245,35.937 27.3045543,34.0441036 30.6735535,30.6735535 C34.0441415,27.3044787 35.937,22.7341245 35.937,17.9685 C35.937,13.2028755 34.0441036,8.63244568 30.6735535,5.26344651 C27.3044787,1.89285853 22.7341245,0 17.9685,0 Z"/>
		<polygon fill="#34798B" points="20.457 27.426 17.775 24.744 22.826 19.693 7 19.693 7 16.244 22.826 16.244 17.775 11.193 20.457 8.511 29.914 17.968"/>
	</g>
	<g fill="none" fill-rule="evenodd" transform="scale(0.7) translate(565 15)">
		<circle cx="27.5" cy="27.5" r="10.5" fill="#D8F9FB"/>
		<path fill="#34798B" fill-rule="nonzero" d="M15.2268696,0 C14.7247039,0 14.2415715,0.201719464 13.8846051,0.559324229 L0.554567195,14.0017589 C0.197576364,14.364156 -0.0023346021,14.8537459 2.05766294e-05,15.3649873 L2.05766294e-05,55.6800033 C2.05766294e-05,56.7408245 0.852033153,57.6 1.90398449,57.6 L38.0715899,57.6 C39.1235412,57.6 39.977909,56.7408245 39.977909,55.6800033 C39.977909,54.619182 39.1235412,53.7576104 38.0715899,53.7576104 L3.80792747,53.7576104 L3.80792747,17.2752151 L11.4163882,17.2752151 C14.5483592,17.2752151 17.1305933,14.6807926 17.1305933,11.5224134 L17.1305933,3.83996887 L45.6897379,3.83996887 L45.6897379,46.0749816 C45.6897379,47.1358028 46.5441057,47.9973745 47.596057,47.9973745 C48.6480084,47.9973745 49.5,47.1358028 49.5,46.0749816 L49.5,1.91997215 C49.5,1.41117609 49.300089,0.921573851 48.940716,0.561597506 C48.5837252,0.201596584 48.100605,0 47.5936992,0 L15.2268696,0 Z M13.3229267,6.55453089 L13.3229267,11.5224994 C13.3229267,12.6193244 12.5042007,13.4448923 11.4166076,13.4448923 L6.49493021,13.4448923 L13.3229267,6.55453089 Z"/>
		<path fill="#34798B" fill-rule="nonzero" d="M26.2513458,18.9 C17.7448276,18.9 10.8,25.843047 10.8,34.3501083 C10.8,42.8571696 17.7448276,49.7900848 26.2513458,49.7900848 C29.810678,49.7900848 33.0831238,48.5641289 35.6987083,46.529786 L46.1233628,56.9501638 C47.9404341,58.8904163 50.7903339,56.0403346 48.8502053,54.2231472 L38.4304928,43.797827 C40.4647677,41.1818284 41.6905835,37.9094826 41.6905835,34.3498612 C41.6905835,25.8427999 34.7574932,18.9 26.2515929,18.9 L26.2513458,18.9 Z M26.2513458,22.7614768 C32.6704619,22.7614768 37.8268822,27.9282964 37.8268822,34.3501083 C37.8268822,40.7696344 32.6700295,45.9263839 26.2513458,45.9263839 C19.8297586,45.9263839 14.6634542,40.7692019 14.6634542,34.3501083 C14.6634542,27.9281111 19.8299439,22.7614768 26.2513458,22.7614768 L26.2513458,22.7614768 Z"/>
		<path fill="#34798B" fill-rule="nonzero" d="M18.9,29.2794156 L20.9184302,31.2978458 C23.782211,28.4411576 28.417789,28.4411576 31.2815698,31.2978458 L33.3,29.2794156 C29.4591797,24.9097412 23.0231689,24.9097412 18.9,29.2794156 Z"/>
	</g>

	<g fill="none" transform="translate(440 12)">
		<path fill="white" d="M17.9685,0 C13.2028755,0 8.63244568,1.89289636 5.26344651,5.26344651 C1.89285853,8.63252134 0,13.2028755 0,17.9685 C0,22.7341245 1.89289636,27.3045543 5.26344651,30.6735535 C8.63252134,34.0441415 13.2028755,35.937 17.9685,35.937 C22.7341245,35.937 27.3045543,34.0441036 30.6735535,30.6735535 C34.0441415,27.3044787 35.937,22.7341245 35.937,17.9685 C35.937,13.2028755 34.0441036,8.63244568 30.6735535,5.26344651 C27.3044787,1.89285853 22.7341245,0 17.9685,0 Z"/>
		<polygon fill="#34798B" points="20.457 27.426 17.775 24.744 22.826 19.693 7 19.693 7 16.244 22.826 16.244 17.775 11.193 20.457 8.511 29.914 17.968"/>
	</g>

	<g fill="none" fill-rule="evenodd" transform="translate(480 11)">
		<rect width="33.66" height="7.854" x="5.61" y="33.66" fill="#D8F9FB" rx="2.805"/>
		<path fill="#34798B" fill-rule="nonzero" stroke="#34798B" stroke-width=".561" d="M33.2564287 0L8.9884569 0C6.55821256 0 4.58471627 1.95563028 4.58471627 4.36387369L4.58471627 24.2703112 1.80113854 21.5119331C1.38747992 21.1020194.723902569 21.1020194.310243958 21.5119331-.103414653 21.9218469-.103414653 22.5794169.310243958 22.9893307L4.90357812 27.5410815C5.11040742 27.7460384 5.37756194 27.8485168 5.65333435 27.8485168 5.92910676 27.8485168 6.19626128 27.7460384 6.40309058 27.5410815L10.9964247 22.9893307C11.4100834 22.5794169 11.4100834 21.9218469 10.9964247 21.5119331 10.5827661 21.1020194 9.91918878 21.1020194 9.50553016 21.5119331L6.71333454 24.2788511 6.71333454 4.36387369C6.71333454 3.10851277 7.73886318 2.09226821 9.00569268 2.09226821L33.2650466 2.09226821C34.5318761 2.09226821 35.5574048 3.10851277 35.5574048 4.36387369L35.5574048 7.26742957C35.5574048 7.84814075 36.0313886 8.31783361 36.617405 8.31783361 37.2034213 8.31783361 37.6774052 7.84814075 37.6774052 7.26742957L37.6774052 4.36387369C37.6515515 1.96417016 35.6780552 0 33.2564287 0zM35.6570226 11.7618879L31.0615862 16.317131C30.6477383 16.7273592 30.6477383 17.3854337 31.0615862 17.795662 31.2685101 18.0007761 31.5357869 18.1033332 31.8116856 18.1033332 32.0875842 18.1033332 32.354861 18.0007761 32.5617849 17.795662L35.3552584 15.0266212 35.3552584 34.9483314C35.3552584 36.2046555 34.3292605 37.2216798 33.0618512 37.2216798L8.7827727 37.2216798C7.51536342 37.2216798 6.48936543 36.2046555 6.48936543 34.9483314L6.48936543 32.0425479C6.48936543 31.4613912 6.01516468 30.9913379 5.42888012 30.9913379 4.84259555 30.9913379 4.3683948 31.4613912 4.3683948 32.0425479L4.3683948 34.9483314C4.3683948 37.3584225 6.34279429 39.3155532 8.77415087 39.3155532L33.0446075 39.3155532C35.4759641 39.3155532 37.4503636 37.3584225 37.4503636 34.9483314L37.4503636 15.0266212 40.2438371 17.795662C40.657685 18.2058903 41.3215661 18.2058903 41.735414 17.795662 42.1492619 17.3854337 42.1492619 16.7273592 41.735414 16.317131L37.1399776 11.7618879C36.760617 11.3687525 36.0536268 11.3687525 35.6570226 11.7618879z"/>
		<path fill="#34798B" fill-rule="nonzero" stroke="#34798B" stroke-width=".561" d="M21.4570538,24.7219306 C21.3416768,24.6977566 21.223303,24.6934051 21.1064277,24.710327 C19.9351766,24.5783367 19.0516188,23.61911 19.0496208,22.4780944 C19.0496208,21.9312771 18.5916093,21.4879249 18.0267116,21.4879249 C17.4618141,21.4879249 17.0038024,21.9312771 17.0038024,22.4780944 C17.0067993,24.3834937 18.3233953,26.0524708 20.2213714,26.5567417 L20.2213714,27.5469112 C20.2213714,28.0937285 20.679383,28.5370807 21.2442807,28.5370807 C21.8091783,28.5370807 22.2671899,28.0937285 22.2671899,27.5469112 L22.2671899,26.6166934 C24.457854,26.1728577 25.9467662,24.197837 25.7165118,22.0429613 C25.4857578,19.8880856 23.6102577,18.2505348 21.3721443,18.2500514 C20.089512,18.2500514 19.0496208,17.2434434 19.0496208,16.0018637 C19.0496208,14.760284 20.089512,13.7536762 21.3721443,13.7536762 C22.6547766,13.7536762 23.6946678,14.760284 23.6946678,16.0018637 C23.6946678,16.548681 24.1526793,16.9920332 24.717577,16.9920332 C25.2824745,16.9920332 25.7404862,16.548681 25.7404862,16.0018637 C25.7374894,14.0012186 24.2895333,12.2756743 22.2671899,11.8627812 L22.2671899,10.9615723 C22.2671899,10.414755 21.8091783,9.97140281 21.2442807,9.97140281 C20.679383,9.97140281 20.2213714,10.414755 20.2213714,10.9615723 L20.2213714,11.9232164 C18.1106221,12.4811537 16.7520708,14.4648771 17.0427609,16.5641524 C17.333451,18.6634277 19.1839777,20.2303903 21.3721443,20.2299068 C22.6377946,20.2299068 23.6701938,21.2108902 23.6931693,22.435548 C23.7166442,23.6602059 22.7217052,24.6774503 21.4570538,24.7219306 L21.4570538,24.7219306 Z"/>
	</g>


	<g fill="none" transform="translate(528 12)">
		<path fill="none" d="M17.9685,0 C13.2028755,0 8.63244568,1.89289636 5.26344651,5.26344651 C1.89285853,8.63252134 0,13.2028755 0,17.9685 C0,22.7341245 1.89289636,27.3045543 5.26344651,30.6735535 C8.63252134,34.0441415 13.2028755,35.937 17.9685,35.937 C22.7341245,35.937 27.3045543,34.0441036 30.6735535,30.6735535 C34.0441415,27.3044787 35.937,22.7341245 35.937,17.9685 C35.937,13.2028755 34.0441036,8.63244568 30.6735535,5.26344651 C27.3044787,1.89285853 22.7341245,0 17.9685,0 Z"/>
		<polygon fill="#34798B" points="20.457 27.426 17.775 24.744 22.826 19.693 7 19.693 7 16.244 22.826 16.244 17.775 11.193 20.457 8.511 29.914 17.968"/>
	</g>

	<g fill="none" fill-rule="evenodd" transform="scale(0.7) translate(815 13)">
		<path stroke="#D8F9FB" stroke-linecap="round" stroke-width="8" d="M7.5,30 C11.0962358,44 19.7629025,51 33.5,51"/>
		<path fill="#34798B" fill-rule="nonzero" d="M29.3128,0.7128 C45.1212266,0.7128 57.9128,13.5064961 57.9128,29.3128 C57.9128,30.3955781 57.8515781,31.4866234 57.7306984,32.5556602 C57.5207789,34.413543 55.2506539,35.2047352 53.9304734,33.8846664 L47.7787922,27.7328734 C46.9060453,26.8602383 46.9060453,25.4455438 47.7787922,24.5730203 C48.6512039,23.7003852 50.0661219,23.7003852 50.9386453,24.5730203 L53.3322195,26.9665945 C52.1815164,14.9602922 42.065607,5.18155 29.3128,5.18155 C15.9002937,5.18155 5.18155,16.0640734 5.18155,29.3128 C5.18155,42.6512367 15.9761508,53.44405 29.3128,53.44405 C38.1553391,53.44405 46.2800852,48.6155656 50.5165719,40.8428453 C51.1070055,39.7592852 52.4640531,39.3597789 53.547725,39.9502125 C54.6311734,40.5407578 55.0307914,41.8979172 54.4402461,42.9813656 C49.4204992,52.1914594 39.7922422,57.9128 29.3128,57.9128 C13.5042617,57.9128 0.7128,45.1192156 0.7128,29.3128 C0.7128,13.5205727 13.5197906,0.7128 29.3128,0.7128 Z M40.8567472,21.6416292 C41.8211666,22.6228494 41.8210431,24.2135792 40.8566237,25.1946737 L28.4967207,37.7698933 C27.5321778,38.751239 25.9686849,38.7508621 25.0045125,37.7698933 L18.1033145,30.7484725 C17.1388952,29.7672524 17.1388952,28.1765226 18.1033145,27.1954281 C19.0677339,26.2143336 20.6312268,26.214208 21.5955227,27.1954281 L26.7506166,32.4403266 L37.364539,21.6416292 C38.3288349,20.6605347 39.8923278,20.6604091 40.8567472,21.6416292 Z"/>
	</g>
	<g fill="none"  transform="translate(0 0)">
		<text style="fill:#34798B;font-family:Arial;font-size:12px;font-weight:bold;" x="15" y="70">Start</text>
		<text style="fill:#34798B;font-family:Arial;font-size:12px;font-weight:bold;" x="3" y="80">registration</text>
		<text style="fill:#34798B;font-family:Arial;font-size:12px;font-weight:bold;" x="100" y="70">Select or</text>
		<text style="fill:#34798B;font-family:Arial;font-size:12px;font-weight:bold;" x="102" y="80">create a</text>
		<text style="fill:#34798B;font-family:Arial;font-size:12px;font-weight:bold;" x="90" y="90">secured party</text>
		<text style="fill:#34798B;font-family:Arial;font-size:12px;font-weight:bold;" x="102" y="100">group</text>
		<text style="fill:#34798B;font-family:Arial;font-size:12px;font-weight:bold;" x="192" y="70">Define the</text>
		<text style="fill:#34798B;font-family:Arial;font-size:12px;font-weight:bold;" x="192" y="80">Collateral</text>
		<text style="fill:#34798B;font-family:Arial;font-size:12px;font-weight:bold;" x="283" y="70">Specify the</text>
		<text style="fill:#34798B;font-family:Arial;font-size:12px;font-weight:bold;" x="290" y="80">grantor</text>
		<text style="fill:#34798B;font-family:Arial;font-size:12px;font-weight:bold;" x="280" y="90">(if applicable)</text>
		<text style="fill:#34798B;font-family:Arial;font-size:12px;font-weight:bold;" x="385" y="70">Review your</text>
		<text style="fill:#34798B;font-family:Arial;font-size:12px;font-weight:bold;" x="385" y="80">registration</text>
		<text style="fill:#34798B;font-family:Arial;font-size:12px;font-weight:bold;" x="488" y="70">Make</text>
		<text style="fill:#34798B;font-family:Arial;font-size:12px;font-weight:bold;" x="475" y="80">a payment</text>
		<text style="fill:#34798B;font-family:Arial;font-size:12px;font-weight:bold;" x="560" y="70">Confirmation</text>
	</g>
	
</svg>
