<svg xmlns="http://www.w3.org/2000/svg" width="85" height="85" viewBox="0 0 85 85">
  <g fill="none" transform="translate(18 12)">
    <rect width="44.46" height="10.26" y="2.565" fill="#D8F9FB" rx="4.275"/>
    <path fill="#34798B" d="M43.4032916,27.245838 C42.5061555,27.245838 41.6602523,27.4427344 40.9176874,27.7903348 C39.9609666,26.522635 38.3289941,25.6862111 36.4802481,25.6862111 C35.5255217,25.6862111 34.6285103,25.9093456 33.8524134,26.2997209 C32.8809834,25.1330049 31.3171968,24.3747442 29.5570798,24.3747442 C29.0031167,24.3747442 28.4682256,24.4499309 27.9653707,24.5892797 L27.9653707,23.1172971 L39.1852027,23.1172971 C41.879104,23.1172971 44.0707737,21.1789808 44.0707737,18.79649 L44.0707737,4.32080704 C44.0707737,1.93831627 41.879104,0 39.1852027,0 L4.88557108,0 C2.1916697,0 0,1.93831627 0,4.32080704 L0,18.7966003 C0,21.1790911 2.1916697,23.1174073 4.88557108,23.1174073 L17.3027019,23.1174073 L17.3027019,33.3615334 C17.0136288,33.105105 16.6889047,32.8765685 16.3323938,32.6807745 C15.1838302,32.0497358 13.8369418,31.830129 12.5162308,32.0550275 C11.0961705,32.1054092 9.8217062,32.6535441 8.99387783,33.5763996 C8.1242903,34.545668 7.82225324,35.8455592 8.16492756,37.142584 L10.6221107,46.4430184 C12.0237222,54.2026776 18.8679843,60.0083659 19.1594258,60.2523367 C19.5067123,60.543051 19.9666862,60.705 20.4448596,60.705 L41.4755148,60.705 C42.1050184,60.705 42.6921396,60.4248691 43.0379302,59.9597482 C46.7627216,54.9489217 48.732133,49.1307758 48.7330055,43.134475 L48.735,31.9609891 C48.735,29.3609862 46.343011,27.245838 43.4032916,27.245838 Z M21.2304303,57.3977796 C19.7234859,55.9801474 15.2825563,51.4023608 14.3055169,45.8701887 C14.2982869,45.8295086 14.2894365,45.7891591 14.2788409,45.7491404 L11.8062007,36.3900561 C11.7236796,36.0774031 11.7651894,35.8081864 11.9232509,35.6319056 C12.0813124,35.4556249 12.3516873,35.3635709 12.7130598,35.3331434 C12.8949302,35.3178195 12.970346,35.2987472 13.1385045,35.2897072 C13.5627026,35.2669968 13.9976211,35.2918018 14.3588689,35.4902416 C14.7201167,35.6886815 14.9721674,35.9995706 15.068899,36.3656921 L17.2016073,44.4385555 C17.3797381,45.1125895 18.0136046,45.6172882 18.7902001,45.7031685 L18.9400344,45.7197052 C19.4724324,45.7785757 20.0074481,45.6325019 20.4095825,45.3186362 C20.8117169,45.0047705 21.0419531,44.5532097 21.0419531,44.0788282 L21.0419531,17.797125 C21.0419531,17.0208944 21.7560969,16.3893045 22.633787,16.3893045 C23.511477,16.3893045 24.2256208,17.0208944 24.2256208,17.797125 L24.2256208,29.0898953 L24.2256208,33.3040961 C24.2256208,34.2173603 25.0627982,34.9577614 26.0954334,34.9577614 C27.1280686,34.9577614 27.965246,34.2173603 27.965246,33.3040961 L27.965246,29.0898953 C27.965246,28.3136648 28.6792651,27.6821851 29.5569552,27.6821851 C30.4346452,27.6821851 31.148789,28.3136648 31.148789,29.0898953 L31.148789,30.4013622 L31.148789,33.4923934 C31.148789,34.4056577 31.9859664,35.1460588 33.0186016,35.1460588 C34.0512368,35.1460588 34.8884142,34.4056577 34.8884142,33.4923934 L34.8884142,30.4013622 C34.8884142,29.6251317 35.602558,28.9935417 36.4802481,28.9935417 C37.3579381,28.9935417 38.0719572,29.6251317 38.0719572,30.4013622 L38.0719572,31.9608788 L38.0719572,34.6472031 C38.0719572,35.5604673 38.9091347,36.3008684 39.9417698,36.3008684 C40.974405,36.3008684 41.8115825,35.5604673 41.8115825,34.6472031 L41.8115825,31.9608788 C41.8115825,31.1846483 42.5257262,30.5530584 43.4034163,30.5530584 C44.2811063,30.5530584 44.9952501,31.1846483 44.9952501,31.9605481 L44.9932556,43.1341443 C44.9925077,48.1882968 43.4238596,53.1008955 40.4478658,57.3977796 L21.2304303,57.3977796 Z M3.73962525,18.7966003 L3.73962525,4.32080704 C3.73962525,3.7619784 4.25369907,3.30733068 4.88557108,3.30733068 L39.1852027,3.30733068 C39.8170747,3.30733068 40.3311485,3.7619784 40.3311485,4.32080704 L40.3311485,18.7966003 C40.3311485,19.3554289 39.8170747,19.8100767 39.1852027,19.8100767 L27.9653707,19.8100767 L27.9653707,17.7970147 C27.9653707,15.1971221 25.573631,13.0818636 22.6339116,13.0818636 C19.6941922,13.0818636 17.3024526,15.1971221 17.3024526,17.7970147 L17.3024526,19.8100767 L4.88532177,19.8100767 C4.25369907,19.8100767 3.73962525,19.3554289 3.73962525,18.7966003 Z"/>
  </g>
</svg>
