<svg xmlns="http://www.w3.org/2000/svg">
  <g fill="none" fill-rule="evenodd" transform="translate(7 7)">
    <path fill="#34798B" fill-rule="nonzero" d="M67.061712,53.2137968 L56.635,63.602 L52.9520853,59.9360521 C52.1716971,59.26895 51.0292538,59.3127915 50.3158981,60.0243087 C49.6022136,60.7361309 49.558203,61.8767265 50.2144133,62.641497 L55.2735414,67.6886481 L55.4033166,67.8064405 C55.9828781,68.2868494 56.7771224,68.3769392 57.4370093,68.0768695 L57.571,68.008 L57.5716851,68.1156704 L70.315194,55.4050029 L70.09,55.44 L70.1197219,55.3744739 C70.3891232,54.680397 70.2391847,53.8684428 69.6841055,53.3147942 C68.9702027,52.602708 67.8274969,52.5582956 67.061712,53.2137968 Z" transform="rotate(-2 60.033 60.5)"/>
    <rect width="27" height="9.238" x="15.801" y="53.856" fill="#D8F9FB" rx="4.619"/>
    <rect width="30.485" height="9.238" x="15.801" y="21.523" fill="#D8F9FB" rx="4.619"/>
    <path fill="#34798B" fill-rule="nonzero" stroke="#34798B" stroke-width=".3" d="M31.9248755,0.0865446431 C34.6122047,0.0906226113 36.9491578,1.90027081 37.6394994,4.47666548 L37.6976855,4.71296651 L44.2270912,4.71296651 C48.2286477,4.71862046 51.4862083,7.89659218 51.619942,11.8668042 L51.6242064,12.110848 L51.6235631,36.1549577 C50.568482,36.4953781 49.5453247,36.9068566 48.5597309,37.3837532 L48.5600193,12.110848 C48.5575613,9.78982006 46.7322818,7.89570144 44.4384107,7.78320145 L44.2286238,7.77791992 L37.6384248,7.77791992 C36.9612867,10.2807178 34.7402764,12.0432129 32.1682702,12.1510784 L31.9261527,12.1563153 L19.7698986,12.1563153 C17.0960958,12.1526459 14.7559251,10.3589302 14.0576265,7.77791992 L7.46742749,7.77791992 C5.14587616,7.78051589 3.25158707,9.60660041 3.13972104,11.9010127 L3.13449937,12.110848 L3.13449937,63.4625471 C3.13709534,65.7840985 4.96317987,67.6783875 7.25759211,67.7902536 L7.46742749,67.7954752 L36.671534,67.7953222 C37.090633,68.8564436 37.5830918,69.880572 38.1426596,70.8614565 L7.46640576,70.8606841 C3.46436066,70.8555813 0.206153968,67.6773134 0.0725257812,63.7066206 L0.068268796,63.4625471 L0.068268796,12.110848 C0.0735094786,8.1089007 3.25174059,4.85084518 7.22233814,4.7172233 L7.46640576,4.71296651 L13.9958114,4.71296651 C14.5851681,2.0910563 16.8604161,0.204413026 19.5253201,0.0918604833 L19.7686214,0.0865446431 L31.9248755,0.0865446431 Z M18.5402027,51.001196 C19.3396127,51.001196 19.9960714,51.6132431 20.0665439,52.3943022 L20.0728072,52.5338004 L20.0728072,54.2477631 C20.0728072,55.0941971 19.3866368,55.7803675 18.5402027,55.7803675 C17.7407928,55.7803675 17.0843341,55.1683204 17.0138616,54.3872613 L17.0075983,54.2477631 L17.0075983,54.0664049 L11.6945697,54.0664049 L11.6945697,59.3794335 L12.0240796,59.3794335 C12.8705137,59.3794335 13.556684,60.0656039 13.556684,60.9120379 C13.556684,61.7114479 12.944637,62.3679066 12.1635779,62.4383791 L12.0240796,62.4446423 L10.1619653,62.4446423 C9.36255533,62.4446423 8.70609664,61.8325953 8.6356241,61.0515362 L8.62936084,60.9120379 L8.62936084,52.5338004 C8.62936084,51.7343905 9.24140787,51.0779318 10.022467,51.0074593 L10.1619653,51.001196 L18.5402027,51.001196 Z M24.2891584,52.9643867 C24.81807,53.1060748 25.2312148,53.5191709 25.3729652,54.0480658 C25.5018292,54.5288793 25.3886025,55.0389879 25.0760709,55.4186755 L24.976375,55.5285095 L18.5090398,61.9955893 C17.9479357,62.5566561 17.0600323,62.5917228 16.4580783,62.1007893 L16.3416817,61.9955893 L13.4992114,59.1531189 C13.1068233,58.7669787 12.9516836,58.2000499 13.0927876,57.6679199 C13.2338915,57.13579 13.6495585,56.7202209 14.1817217,56.5792424 C14.6655065,56.4510801 15.1779929,56.5677541 15.5572174,56.884902 L15.6668249,56.9860163 L17.4254885,58.7444244 L22.8087615,53.3611514 C23.1959227,52.9739445 23.7602469,52.8226987 24.2891584,52.9643867 Z M35.011324,58.2552522 L29.7121227,58.2552682 C28.8656886,58.2552682 28.1795182,57.5690978 28.1795182,56.7226638 C28.1795182,55.9232538 28.7915653,55.2667951 29.5726244,55.1963226 L29.7121227,55.1900593 L35.3007544,55.189642 C35.1408366,56.1921612 35.0430047,57.2153866 35.011324,58.2552522 Z M18.5402027,34.7093556 C19.3396127,34.7093556 19.9960714,35.3214027 20.0665439,36.1024618 L20.0728072,36.24196 L20.0728072,44.6201975 C20.0728072,45.4196075 19.4607601,46.0760662 18.679701,46.1465387 L18.5402027,46.1528019 L10.1619653,46.1528019 C9.36255533,46.1528019 8.70609664,45.5407549 8.6356241,44.7596958 L8.62936084,44.6201975 L8.62936084,36.24196 C8.62936084,35.4425501 9.24140787,34.7860914 10.022467,34.7156189 L10.1619653,34.7093556 L18.5402027,34.7093556 Z M17.0075983,37.7745645 L11.6945697,37.7745645 L11.6945697,43.0875931 L17.0075983,43.0875931 L17.0075983,37.7745645 Z M40.8835317,38.8982189 C41.7299657,38.8982189 42.4161361,39.5843893 42.4161361,40.4308234 C42.4161361,41.2302333 41.8040891,41.886692 41.0230299,41.9571645 L40.8835317,41.9634278 L29.7121227,41.9634278 C28.8656886,41.9634278 28.1795182,41.2772574 28.1795182,40.4308234 C28.1795182,39.6314134 28.7915653,38.9749547 29.5726244,38.9044822 L29.7121227,38.8982189 L40.8835317,38.8982189 Z M18.5404582,18.4177707 C19.3398681,18.4177707 19.9963271,19.0298177 20.0667997,19.8108768 L20.073063,19.9503751 L20.073063,21.1473391 C20.0734411,21.9287172 19.4859194,22.5852772 18.7092972,22.6713575 C17.9812139,22.7520577 17.3054978,22.3071338 17.0831892,21.6229265 L17.0448917,21.4829795 L11.6945697,21.4829795 L11.6945697,26.7960081 L12.0238242,26.7960081 C12.8702582,26.7960081 13.5564286,27.4821785 13.5564286,28.3286126 C13.5564286,29.1280225 12.9443816,29.7844812 12.1633224,29.8549537 L12.0238242,29.861217 L10.1619653,29.861217 C9.36264954,29.8610838 8.70633494,29.2490662 8.63587812,28.4680947 L8.62961628,28.3286126 L8.62961628,19.9503751 C8.62961628,19.1509651 9.2416633,18.4945064 10.0227225,18.4240339 L10.1622207,18.4177707 L18.5404582,18.4177707 Z M24.2948864,20.1144963 C24.8270496,20.2554749 25.2427166,20.6710439 25.3838206,21.2031739 C25.5120969,21.6869284 25.3955437,22.1994423 25.0784851,22.5787415 L24.9773967,22.6883729 L18.5100615,29.1557081 C17.9489574,29.716775 17.061054,29.7518416 16.4591,29.2609081 L16.3427034,29.1557081 L13.5002331,26.3134932 C12.9015926,25.7149232 12.9015355,24.7443924 13.5001054,24.145752 C14.0612647,23.5845265 14.9493428,23.5493997 15.5514251,24.0404075 L15.6678466,24.1456242 L17.4265102,25.9042878 L22.8097832,20.5212702 C23.1958309,20.1287912 23.7627232,19.9735178 24.2948864,20.1144963 Z M40.8835317,22.606634 C41.7299657,22.606634 42.4161361,23.2928043 42.4161361,24.1392384 C42.4161361,24.9386483 41.8040891,25.595107 41.0230299,25.6655795 L40.8835317,25.6718428 L29.7121227,25.6718428 C28.8656886,25.6718428 28.1795182,24.9856724 28.1795182,24.1392384 C28.1795182,23.3398285 28.7915653,22.6833698 29.5726244,22.6128972 L29.7121227,22.606634 L40.8835317,22.606634 Z M31.9256418,3.15175348 L19.7693877,3.15175348 C18.2518433,3.15351799 17.0117929,4.33943337 16.9235128,5.83522345 L16.9184881,6.00265313 L16.9184881,6.24046225 C16.9202526,7.75800672 18.106168,8.99805711 19.601958,9.08633722 L19.7693877,9.0913619 L31.9256418,9.0913619 C33.4431863,9.08959739 34.6832367,7.90368201 34.7715168,6.40789193 L34.7765415,6.24046225 L34.7765415,6.00265313 C34.7747116,4.42890331 33.4993917,3.15358334 31.9256418,3.15175348 Z"/>
    <path fill="#34798B" fill-rule="nonzero" d="M20.6026458,0.594633502 C25.9079874,0.596234516 30.9948361,2.70397787 34.744158,6.45498354 C38.4938442,10.2078889 40.599381,15.2945286 40.599381,20.6004615 C40.5913762,25.9013644 38.4814656,30.9834895 34.7328228,34.7321322 C31.0880871,38.3753275 26.1837562,40.4688591 21.0412316,40.5900944 L20.5998843,40.595646 L19.4304223,40.5975034 L19.466,40.561 L19.2789106,40.5515187 C14.7545378,40.2520938 10.4589498,38.4215787 7.10459143,35.3557888 L6.77231941,35.0451032 L6.45656409,34.7363354 C2.70627521,30.9844119 0.599335102,25.8974135 0.599335102,20.5933025 C0.600936612,15.2879605 2.70867977,10.2011119 6.45953847,6.45193695 C10.1062959,2.80517955 15.015554,0.712922071 20.1609147,0.5994994 L20.6026458,0.594633502 Z M20.5995682,3.98347407 L20.1870641,3.98347407 C15.9302056,4.08910935 11.8688498,5.82643204 8.85054073,8.84455914 C5.73398946,11.9595608 3.9830584,16.1863862 3.9830584,20.5934484 C3.9830584,25.0007922 5.73283852,29.2274415 8.84781078,32.3425077 C11.9624126,35.4586589 16.1891344,37.2100441 20.5967001,37.2119233 C25.0037543,37.2119233 29.2306697,35.4622079 32.3472918,32.3470885 C35.4631768,29.234255 37.2147456,25.0075624 37.2166252,20.6007145 C37.2120707,16.1948227 35.4601492,11.9721865 32.3442244,8.85607385 C29.3257288,5.83757825 25.2686436,4.09919146 21.0120875,3.98922023 L20.5995682,3.98347407 Z" transform="translate(39 39)"/>
  </g>
</svg>
