<svg xmlns="http://www.w3.org/2000/svg" viewBox="0 0 115.74 113.22"><defs><style>.cls-1{fill:none;}.cls-1,.cls-3{stroke:#34798b;stroke-miterlimit:10;stroke-width:6px;}.cls-2{fill:#d8f9fb;}.cls-3{fill:#34798b;}</style></defs><g id="Layer_2" data-name="Layer 2"><g id="Layer_1-2" data-name="Layer 1"><path class="cls-1" d="M52.39,5.12S15.15,2.22,14.32,38.35a9.91,9.91,0,0,1-1.18,4.49L3.51,60.31a4.09,4.09,0,0,0,2.22,5.84,13,13,0,0,0,4.53.53c6.47-.19,5.66,7.28,4.85,11a5.5,5.5,0,0,0,3.18,6.21,14.3,14.3,0,0,0,5.19,1,13.9,13.9,0,0,0,3.84-.48c3.27-.85,11.52-1.7,12.12,11v13.25a1.39,1.39,0,0,0,1.4,1.37l25.51-.24"/><ellipse class="cls-2" cx="90.74" cy="45.45" rx="25" ry="24.91"/><ellipse class="cls-1" cx="79.31" cy="33.08" rx="30.2" ry="30.08"/><line class="cls-1" x1="78.55" y1="62.66" x2="78.55" y2="77.3"/><rect class="cls-1" x="72.97" y="77.3" width="10.28" height="32.92" rx="5.05"/><ellipse class="cls-3" cx="66.92" cy="33.78" rx="3.81" ry="3.78"/><ellipse class="cls-3" cx="79.82" cy="33.71" rx="3.81" ry="3.78"/><ellipse class="cls-3" cx="92.51" cy="33.59" rx="3.81" ry="3.78"/></g></g></svg>