<?xml version="1.0" encoding="UTF-8"?>
<svg width="18px" height="14px" viewBox="0 0 18 14" version="1.1" xmlns="http://www.w3.org/2000/svg" xmlns:xlink="http://www.w3.org/1999/xlink">
    <title>Fill 1</title>
    <g id="Symbols" stroke="none" stroke-width="1" fill="none" fill-rule="evenodd">
        <g id="Header2" transform="translate(-104.000000, -127.000000)" fill="#FFFFFF">
            <g id="Group-8" transform="translate(0.000000, 112.000000)">
                <g id="Group-5" transform="translate(80.000000, 0.000000)">
                    <g id="Group-15" transform="translate(24.000000, 9.000000)">
                        <path d="M1.09375,6 C0.489628125,6 0,6.48962812 0,7.09375 C0,7.69787187 0.489628125,8.1875 1.09375,8.1875 L16.84375,8.1875 C17.4478719,8.1875 17.9375,7.69787187 17.9375,7.09375 C17.9375,6.48962812 17.4478719,6 16.84375,6 L1.09375,6 Z M1.09375,11.90625 C0.489628125,11.90625 0,12.3958781 0,13 C0,13.6041219 0.489628125,14.09375 1.09375,14.09375 L16.84375,14.09375 C17.4478719,14.09375 17.9375,13.6041219 17.9375,13 C17.9375,12.3958781 17.4478719,11.90625 16.84375,11.90625 L1.09375,11.90625 Z M1.09375,17.8125 C0.489628125,17.8125 0,18.3021281 0,18.90625 C0,19.5103719 0.489628125,20 1.09375,20 L16.84375,20 C17.4478719,20 17.9375,19.5103719 17.9375,18.90625 C17.9375,18.3021281 17.4478719,17.8125 16.84375,17.8125 L1.09375,17.8125 Z" id="Fill-1"></path>
                    </g>
                </g>
            </g>
        </g>
    </g>
</svg>