<svg xmlns="http://www.w3.org/2000/svg" xmlns:xlink="http://www.w3.org/1999/xlink" width="90" height="90" viewBox="5 -18 90 90">
  <defs>
    <path id="motor-vehicles-a" d="M34.749446,5.52820723e-12 C53.4299287,5.52820723e-12 65.6579985,8.84463391 68.3355304,10.980864 C81.8000041,11.2697755 87.7879296,20.3083315 87.7879296,23.7759548 L87.7879296,23.7759548 L87.7879296,31.0916727 C87.7879296,34.2739852 84.5104564,36.5784183 82.301184,36.5784183 L82.301184,36.5784183 L79.8450748,36.5787104 C78.3349711,40.8360339 74.2666735,43.8939648 69.4987204,43.8939648 C64.7307674,43.8939648 60.6624698,40.8360339 59.1523661,36.5787104 L24.9776188,36.5787104 C23.4675151,40.8360339 19.3992175,43.8939648 14.6312644,43.8939648 C9.78425129,43.8939648 5.6602887,40.7337826 4.21190899,36.3659503 C0.46544346,35.0269217 0,27.6371342 0,21.9469824 C0,16.6212385 2.00814889,12.1293085 5.9805527,8.56669595 L5.9805527,8.56669595 L4.19187364,6.78161756 C3.66874674,6.25488998 3.51151718,5.47199997 3.79682796,4.78804284 C4.07853805,4.10408571 4.74792101,3.65777325 5.4867456,3.65777325 L5.4867456,3.65777325 L14.0753885,3.65777325 C22.1993727,0.36212521 31.2159818,5.52820723e-12 34.749446,5.52820723e-12 Z M69.4987204,25.6047556 C65.4640764,25.6047556 62.1830025,28.8858295 62.1830025,32.9204736 C62.1830025,36.9551177 65.4640764,40.2361916 69.4987204,40.2361916 C73.5333645,40.2361916 76.8144384,36.9551177 76.8144384,32.9204736 C76.8144384,28.8858295 73.5333645,25.6047556 69.4987204,25.6047556 Z M14.6312644,25.6047556 C10.5966204,25.6047556 7.31554649,28.8858295 7.31554649,32.9204736 C7.31554649,36.9551177 10.5966204,40.2361916 14.6312644,40.2361916 C18.6659085,40.2361916 21.9469824,36.9551177 21.9469824,32.9204736 C21.9469824,28.8858295 18.6659085,25.6047556 14.6312644,25.6047556 Z M34.7492745,3.65777325 C31.3877855,3.65777325 22.7442751,4.00155215 15.1396457,7.17289111 C14.9201759,7.26805185 14.6787591,7.31554649 14.4373423,7.31554649 L14.4373423,7.31554649 L9.90168974,7.31554649 L9.99685048,7.41070724 C10.3735499,7.78740661 10.567472,8.30693284 10.5271787,8.83726109 C10.4868854,9.36776081 10.219921,9.8541951 9.79195483,10.1724263 C5.66592214,13.2376311 3.65777325,17.0857258 3.65777325,21.9469824 C3.65777325,25.5030947 3.88905221,27.9182643 4.18712748,29.554058 C5.61129054,25.144843 9.75544179,21.9469824 14.6312644,21.9469824 C20.6814302,21.9469824 25.6047556,26.8704793 25.6047556,32.9204736 L25.6047556,32.9204736 L58.5252292,32.9204736 C58.5252292,26.8704793 63.4487261,21.9469824 69.4987204,21.9469824 C75.5488862,21.9469824 80.4722116,26.8704793 80.4722116,32.9204736 L80.4722116,32.9204736 L82.3010125,32.9204736 C82.7217773,32.8728075 84.1299849,32.046195 84.1299849,31.0915012 L84.1299849,31.0915012 L84.1299849,23.7757833 C84.1044372,22.2249204 79.5320921,14.6312644 67.6697481,14.6312644 C67.2272078,14.6312644 66.8028423,14.4702628 66.4700369,14.1813513 C66.3493285,14.0789892 54.1138858,3.65777325 34.7492745,3.65777325 Z M38.4072192,7.31554649 C39.4167804,7.31554649 40.2361916,8.13495766 40.2361916,9.14451885 L40.2361916,9.14451885 L40.2361916,14.6312644 L56.6964284,14.6312644 C57.7059895,14.6312644 58.5254007,15.4506756 58.5254007,16.4602368 C58.5254007,17.469798 57.7059895,18.2892092 56.6964284,18.2892092 L56.6964284,18.2892092 L38.4072192,18.2892092 C37.397658,18.2892092 36.5782468,17.469798 36.5782468,16.4602368 L36.5782468,16.4602368 L36.5782468,9.14451885 C36.5782468,8.13495766 37.397658,7.31554649 38.4072192,7.31554649 Z"/>
  </defs>
  <g fill="none" fill-rule="evenodd" transform="translate(6 27)">
    <circle cx="66.339" cy="36.855" r="8.505" fill="#D8F9FB"/>
    <circle cx="10.773" cy="36.855" r="8.505" fill="#D8F9FB"/>
    <g fill-rule="nonzero">
      <use fill="#FFF" xlink:href="#motor-vehicles-a"/>
      <use fill="#35798B" xlink:href="#motor-vehicles-a"/>
    </g>
  </g>
</svg>
