<?xml version="1.0" encoding="utf-8"?>
<!-- Generator: Adobe Illustrator 26.2.1, SVG Export Plug-In . SVG Version: 6.00 Build 0)  -->
<svg version="1.1" id="Layer_1" xmlns="http://www.w3.org/2000/svg" xmlns:xlink="http://www.w3.org/1999/xlink" x="0px" y="0px"
	 viewBox="0 0 255.2 76.5" style="enable-background:new 0 0 255.2 76.5;" xml:space="preserve">
<style type="text/css">
	.st0{fill:#005257;}
</style>
<g transform="scale(1.23) translate(-81 -8.35)">
	<path class="st0" d="M108.5,59.1c-0.7,0.7-1.8,0.7-2.5,0l-7.3-7.3c-0.5-0.5-0.8-1.3-0.8-2V41c0-0.6,0.5-1.1,1.1-1.1
		c0.3,0,0.5,0.1,0.7,0.3l7.6,7.6l24.2-24.2c-5.8-0.9-14-3.4-19.9-9.8c-0.6-0.7-1.7-0.7-2.4-0.1l-0.1,0.1
		c-8.2,8.9-20.9,10.2-25.4,10.3c-0.9,0-1.7,0.8-1.6,1.8V26c0.5,7.6,4.1,36.3,27.4,44.3c0.6,0.2,1.2,0.2,1.8,0
		c20.8-7.1,25.8-30.5,27.1-41L108.5,59.1z"/>
	<path class="st0" d="M153.1,30.2v-2.1l0.8-0.1c0.5,0,0.7-0.3,0.7-0.7V15.8l-1.4-0.1v-2.1h7.1c1.6-0.1,3.1,0.4,4.4,1.3
		c1.1,1,1.7,2.5,1.6,3.9c0.1,1.6-0.6,3.1-1.8,4.1c-1.3,1-3,1.5-4.7,1.5h-2.1V28l2.4,0.1v2.1C160.1,30.2,153.1,30.2,153.1,30.2z
		 M157.8,22h1.8c2.4,0,3.6-1,3.6-3c0.1-0.9-0.2-1.8-0.9-2.4c-0.9-0.5-2-0.7-3-0.6h-1.5L157.8,22z"/>
	<path class="st0" d="M167.3,30.2v-2.1l0.8-0.1c0.5,0,0.7-0.3,0.7-0.7V15.8l-1.4-0.1v-2.1h7.1c1.6-0.1,3.1,0.4,4.4,1.3
		c1.1,1,1.7,2.5,1.6,3.9c0.1,1.6-0.6,3.1-1.8,4.1c-1.3,1-3,1.5-4.7,1.5h-2.1V28l2.4,0.1v2.1C174.3,30.2,167.3,30.2,167.3,30.2z
		 M171.9,22h1.8c2.4,0,3.6-1,3.6-3c0.1-0.9-0.2-1.8-0.9-2.4c-0.9-0.5-2-0.7-3-0.6h-1.5L171.9,22z"/>
	<path class="st0" d="M186.9,28c2,0,3-0.8,3-2.4c0-0.8-0.5-1.6-1.3-1.8c-0.6-0.3-1.2-0.5-1.8-0.7s-1.2-0.4-1.9-0.6
		c-0.5-0.2-1-0.5-1.5-0.9c-1-0.8-1.6-2.1-1.5-3.4c-0.1-1.4,0.5-2.7,1.6-3.6c1.2-0.9,2.7-1.4,4.1-1.3c1.6,0,3.3,0.3,4.8,1v3.8
		l-2.6,0.2v-1.4c0-0.2,0-0.4-0.1-0.5c-0.2-0.3-0.8-0.5-1.8-0.5c-0.8-0.1-1.5,0.1-2.2,0.5c-0.5,0.4-0.8,1-0.7,1.6
		c0,0.5,0.2,1,0.6,1.4c0.3,0.3,0.7,0.5,1.2,0.7l1.7,0.5c0.5,0.2,1.1,0.4,1.6,0.6c0.5,0.3,1,0.6,1.4,0.9c1.1,0.8,1.6,2.1,1.5,3.5
		c0.1,1.4-0.6,2.8-1.7,3.7c-1.3,1-2.9,1.4-4.4,1.4c-1.7,0-3.4-0.3-5-1v-4l2.6-0.2V27c0,0.2,0,0.4,0.1,0.5s0.3,0.2,0.6,0.3
		C185.8,27.9,186.3,28,186.9,28z"/>
	<path class="st0" d="M194.3,30.2v-2.1l0.8-0.1c0.5,0,0.7-0.3,0.7-0.7V15.8l-1.4-0.1v-2.1h6.8c1.6-0.1,3.1,0.3,4.4,1.1
		c1.1,0.8,1.7,2.1,1.6,3.5c0,1-0.3,2-0.9,2.8c-0.6,0.7-1.3,1.3-2.1,1.6c0.7,0.3,1.2,0.9,1.4,1.6l1.8,3.9h1.4v2.1h-6.2v-2l0.7-0.1
		c0.4-0.1,0.6-0.2,0.6-0.5c0-0.1,0-0.2-0.1-0.3l-1.2-2.5c-0.1-0.3-0.3-0.6-0.6-0.9c-0.3-0.2-0.6-0.3-1-0.3h-2.3v4.3l1.6,0.1v2.1
		L194.3,30.2z M198.9,21.3h2.2c2.1,0,3.1-0.9,3.1-2.8c0-1-0.3-1.7-0.8-2c-0.8-0.4-1.7-0.5-2.6-0.5H199L198.9,21.3L198.9,21.3z"/>
	<path class="st0" d="M152.8,49.4V38h4.7c0.5,0,0.9,0.1,1.4,0.3c0.4,0.2,0.8,0.5,1.1,0.8s0.5,0.7,0.7,1.1c0.2,0.4,0.3,0.9,0.3,1.3
		c0,0.9-0.3,1.8-0.9,2.5c-0.3,0.3-0.6,0.6-1,0.8s-0.9,0.3-1.3,0.3h-3.7v4.2h-1.3V49.4z M153.9,44.2h3.6c0.3,0,0.6-0.1,0.9-0.2
		c0.3-0.1,0.5-0.3,0.7-0.6c0.2-0.2,0.3-0.5,0.4-0.8c0.1-0.3,0.2-0.7,0.2-1s-0.1-0.7-0.2-1c-0.1-0.3-0.3-0.6-0.5-0.8
		s-0.4-0.4-0.7-0.5s-0.6-0.2-0.9-0.2h-3.5V44.2z"/>
	<path class="st0" d="M165.9,49.5c-0.6,0-1.1-0.1-1.7-0.3c-0.5-0.2-1-0.6-1.3-1c-0.4-0.4-0.7-0.9-0.9-1.4s-0.3-1.1-0.3-1.7
		c0-0.6,0.1-1.1,0.3-1.7c0.2-0.5,0.5-1,0.9-1.4s0.8-0.7,1.3-0.9s1.1-0.3,1.7-0.3c0.6,0,1.1,0.1,1.7,0.3c0.5,0.2,0.9,0.5,1.3,0.9
		c0.4,0.4,0.7,0.9,0.9,1.4s0.3,1.1,0.3,1.6v0.3c0,0.1,0,0.1,0,0.2H163c0,0.4,0.1,0.8,0.3,1.2s0.4,0.7,0.7,1s0.6,0.5,0.9,0.7
		c0.4,0.2,0.7,0.2,1.1,0.2c0.3,0,0.5,0,0.8-0.1s0.5-0.2,0.7-0.3s0.4-0.3,0.6-0.5c0.2-0.2,0.3-0.4,0.4-0.6l1,0.3
		c-0.1,0.3-0.3,0.6-0.6,0.8c-0.2,0.3-0.5,0.5-0.8,0.7s-0.6,0.3-1,0.4C166.7,49.5,166.3,49.5,165.9,49.5z M168.9,44.7
		c0-0.4-0.1-0.8-0.3-1.2s-0.4-0.7-0.7-1s-0.6-0.5-0.9-0.6c-0.4-0.1-0.8-0.2-1.1-0.2c-0.4,0-0.8,0.1-1.1,0.2
		c-0.4,0.1-0.7,0.4-0.9,0.6c-0.3,0.3-0.5,0.6-0.7,1s-0.3,0.8-0.3,1.2H168.9z"/>
	<path class="st0" d="M175.8,42c-0.7,0-1.4,0.2-1.9,0.6c-0.5,0.4-0.9,0.9-1.2,1.6v5.2h-1.1v-8.3h1v2c0.3-0.6,0.7-1.1,1.2-1.5
		s1.1-0.5,1.7-0.5h0.2L175.8,42z"/>
	<path class="st0" d="M179.9,49.5c-0.6,0-1.3-0.1-1.9-0.3c-0.6-0.2-1.1-0.5-1.6-0.9l0.5-0.7c0.4,0.4,0.9,0.6,1.4,0.9
		c0.5,0.2,1,0.3,1.6,0.3s1.1-0.1,1.6-0.4c0.4-0.3,0.6-0.7,0.6-1.2c0-0.2,0-0.4-0.2-0.6c-0.1-0.2-0.3-0.3-0.5-0.4
		c-0.2-0.1-0.5-0.2-0.8-0.3c-0.3-0.1-0.7-0.2-1.1-0.3s-0.9-0.2-1.2-0.4c-0.3-0.1-0.6-0.2-0.9-0.4c-0.2-0.1-0.4-0.3-0.5-0.5
		c-0.1-0.3-0.2-0.5-0.2-0.8c0-0.4,0.1-0.8,0.2-1.1c0.2-0.3,0.4-0.6,0.7-0.8s0.6-0.4,1-0.5s0.8-0.2,1.2-0.2c0.6,0,1.2,0.1,1.8,0.3
		c0.5,0.2,0.9,0.5,1.3,0.8l-0.5,0.6c-0.3-0.3-0.7-0.6-1.1-0.7c-0.4-0.2-0.9-0.2-1.4-0.2c-0.3,0-0.5,0-0.8,0.1
		c-0.2,0.1-0.4,0.2-0.6,0.3c-0.2,0.1-0.3,0.3-0.4,0.5c-0.1,0.2-0.2,0.5-0.2,0.7s0,0.4,0.1,0.5c0.1,0.2,0.2,0.3,0.4,0.4
		c0.2,0.1,0.4,0.2,0.6,0.3c0.3,0.1,0.6,0.2,0.9,0.2c0.5,0.1,1,0.3,1.4,0.4c0.4,0.1,0.7,0.2,1,0.4c0.5,0.3,0.8,0.9,0.8,1.5
		c0,0.7-0.3,1.4-0.9,1.8C181.6,49.3,180.7,49.6,179.9,49.5z"/>
	<path class="st0" d="M188.4,49.5c-0.6,0-1.1-0.1-1.7-0.4c-0.5-0.2-0.9-0.5-1.3-0.9c-0.4-0.4-0.7-0.9-0.9-1.4s-0.3-1.1-0.3-1.6
		c0-0.6,0.1-1.1,0.3-1.7c0.2-0.5,0.5-1,0.9-1.4s0.8-0.8,1.3-1s1.1-0.4,1.6-0.3c0.6,0,1.1,0.1,1.7,0.3c0.5,0.2,0.9,0.6,1.3,1
		c0.4,0.4,0.7,0.9,0.9,1.4s0.3,1.1,0.3,1.7c0,0.6-0.1,1.1-0.3,1.6s-0.5,1-0.9,1.4s-0.8,0.7-1.3,0.9C189.5,49.4,189,49.5,188.4,49.5z
		 M185.4,45.2c0,0.4,0.1,0.9,0.2,1.3c0.2,0.4,0.4,0.7,0.6,1c0.3,0.3,0.6,0.6,1,0.7c0.4,0.2,0.8,0.3,1.2,0.3s0.8-0.1,1.2-0.3
		s0.7-0.4,1-0.7s0.5-0.7,0.6-1.1c0.3-0.8,0.3-1.8,0-2.6c-0.2-0.4-0.4-0.8-0.6-1.1c-0.3-0.3-0.6-0.5-1-0.7c-0.7-0.3-1.6-0.3-2.4,0
		c-0.4,0.2-0.7,0.4-1,0.7s-0.5,0.7-0.6,1.1C185.4,44.3,185.3,44.8,185.4,45.2L185.4,45.2z"/>
	<path class="st0" d="M201.3,49.4h-1.1v-4.7c0.1-0.7-0.1-1.5-0.4-2.2c-0.3-0.4-0.8-0.7-1.4-0.7c-0.3,0-0.7,0.1-1,0.2
		c-0.3,0.1-0.6,0.3-0.9,0.5c-0.3,0.2-0.5,0.5-0.7,0.8s-0.4,0.6-0.5,1v5.1h-1V41h1v1.9c0.3-0.6,0.9-1.1,1.5-1.5s1.3-0.6,2.1-0.6
		c0.4,0,0.8,0.1,1.2,0.3c0.3,0.2,0.6,0.4,0.8,0.7s0.4,0.7,0.4,1.1c0.1,0.5,0.1,1,0.1,1.5L201.3,49.4z"/>
	<path class="st0" d="M205.6,49.5c-0.4,0-0.7-0.1-1.1-0.2c-0.3-0.1-0.6-0.3-0.9-0.5c-0.5-0.5-0.8-1.1-0.8-1.8c0-0.3,0.1-0.7,0.3-1
		c0.2-0.3,0.4-0.6,0.7-0.8s0.7-0.4,1.1-0.5c0.5-0.1,0.9-0.2,1.4-0.2c0.4,0,0.9,0,1.3,0.1c0.4,0.1,0.8,0.2,1.2,0.3v-0.8
		c0-0.6-0.2-1.3-0.6-1.8c-0.5-0.4-1.1-0.7-1.7-0.6c-0.4,0-0.9,0.1-1.3,0.2c-0.5,0.2-0.9,0.4-1.4,0.7l-0.4-0.7c0.9-0.7,2-1.1,3.1-1.1
		c0.9-0.1,1.8,0.3,2.5,0.9c0.6,0.7,0.9,1.5,0.9,2.4v3.8c0,0.3,0.1,0.5,0.4,0.5v1c-0.1,0-0.3,0-0.4,0c-0.2,0-0.5-0.1-0.6-0.2
		c-0.2-0.1-0.3-0.4-0.2-0.6v-0.7c-0.4,0.5-0.9,0.9-1.5,1.2C206.9,49.4,206.3,49.5,205.6,49.5z M205.9,48.7c0.5,0,1.1-0.1,1.6-0.3
		c0.4-0.2,0.8-0.5,1.1-0.8c0.1-0.1,0.2-0.2,0.2-0.3s0.1-0.2,0.1-0.3v-1.5c-0.4-0.1-0.7-0.2-1.1-0.3c-0.4-0.1-0.8-0.1-1.2-0.1
		c-0.7,0-1.3,0.1-1.9,0.5c-0.4,0.3-0.7,0.7-0.7,1.3c0,0.2,0.1,0.5,0.1,0.7c0.1,0.2,0.2,0.4,0.4,0.6c0.2,0.2,0.4,0.3,0.6,0.4
		C205.4,48.6,205.6,48.7,205.9,48.7z"/>
	<path class="st0" d="M212.2,37.7h1.1v9.8c0,0.3,0.1,0.5,0.3,0.7s0.5,0.3,0.7,0.3c0.1,0,0.3,0,0.4,0l0.4-0.1l0.2,0.8
		c-0.2,0.1-0.5,0.2-0.7,0.2c-0.3,0-0.5,0.1-0.8,0.1c-0.8,0.1-1.6-0.5-1.6-1.4c0-0.1,0-0.2,0-0.3L212.2,37.7z"/>
	<path class="st0" d="M220.5,49.4V38h4.7c0.5,0,0.9,0.1,1.4,0.3c0.4,0.2,0.8,0.5,1.1,0.8s0.5,0.7,0.7,1.1c0.2,0.4,0.3,0.9,0.2,1.3
		c0,0.5-0.1,0.9-0.2,1.3c-0.2,0.4-0.4,0.8-0.7,1.1s-0.6,0.6-1,0.8s-0.9,0.3-1.3,0.3h-3.7v4.2h-1.2V49.4z M221.6,44.2h3.6
		c0.3,0,0.6-0.1,0.9-0.2c0.3-0.1,0.5-0.3,0.7-0.6c0.2-0.2,0.3-0.5,0.4-0.8c0.1-0.3,0.2-0.7,0.2-1s-0.1-0.7-0.2-1
		c-0.1-0.3-0.3-0.6-0.5-0.8s-0.5-0.4-0.7-0.5c-0.3-0.1-0.6-0.2-0.9-0.2h-3.5V44.2z"/>
	<path class="st0" d="M234.2,42c-0.7,0-1.4,0.2-1.9,0.6c-0.5,0.4-0.9,0.9-1.2,1.6v5.2H230v-8.3h1v2c0.3-0.6,0.7-1.1,1.2-1.5
		s1.1-0.5,1.7-0.5h0.2L234.2,42z"/>
	<path class="st0" d="M238.7,49.5c-0.6,0-1.1-0.1-1.7-0.3c-0.5-0.2-0.9-0.5-1.3-0.9c-0.4-0.4-0.7-0.9-0.9-1.4s-0.3-1.1-0.3-1.6
		c0-1.1,0.4-2.2,1.2-3c0.4-0.4,0.8-0.8,1.3-1c1.1-0.5,2.2-0.5,3.3,0c0.5,0.2,0.9,0.6,1.3,1c0.4,0.4,0.7,0.9,0.9,1.4s0.3,1.1,0.3,1.7
		s-0.1,1.1-0.3,1.6s-0.5,1-0.9,1.4C240.9,49.1,239.8,49.6,238.7,49.5L238.7,49.5z M235.7,45.2c0,0.9,0.3,1.7,0.9,2.4
		c0.3,0.3,0.6,0.6,1,0.7c0.4,0.2,0.8,0.3,1.2,0.3s0.8-0.1,1.2-0.3s0.7-0.4,1-0.7s0.5-0.7,0.7-1.1c0.5-1.3,0.2-2.7-0.7-3.7
		c-0.3-0.3-0.6-0.5-1-0.7s-0.8-0.3-1.2-0.3s-0.8,0.1-1.2,0.3s-0.7,0.4-1,0.7s-0.5,0.7-0.7,1.1C235.8,44.3,235.7,44.8,235.7,45.2
		L235.7,45.2z"/>
	<path class="st0" d="M248.9,49.5c-0.7,0-1.3-0.2-1.9-0.5c-0.5-0.3-1-0.8-1.3-1.3v5.1h-1.1V41h1v1.6c0.3-0.5,0.8-1,1.3-1.3
		s1.2-0.5,1.8-0.5c0.5,0,1.1,0.1,1.6,0.4c0.5,0.2,0.9,0.6,1.2,1c0.7,0.8,1.1,1.9,1.1,3c0,0.6-0.1,1.1-0.3,1.7
		c-0.2,0.5-0.4,1-0.8,1.4c-0.3,0.4-0.7,0.7-1.2,0.9C250,49.4,249.4,49.5,248.9,49.5z M248.6,48.5c0.4,0,0.8-0.1,1.2-0.3
		s0.7-0.4,0.9-0.8c0.3-0.3,0.5-0.7,0.6-1.1c0.1-0.4,0.2-0.8,0.2-1.2s-0.1-0.9-0.2-1.3c-0.2-0.4-0.4-0.8-0.6-1.1
		c-0.3-0.3-0.6-0.6-1-0.7c-0.4-0.2-0.8-0.3-1.2-0.3c-0.3,0-0.6,0.1-0.9,0.2c-0.3,0.1-0.6,0.3-0.9,0.5c-0.3,0.2-0.5,0.4-0.7,0.7
		c-0.2,0.2-0.3,0.5-0.4,0.8v2.6c0.1,0.3,0.3,0.6,0.5,0.8s0.4,0.5,0.7,0.7c0.2,0.2,0.5,0.3,0.8,0.4C248,48.5,248.3,48.6,248.6,48.5
		L248.6,48.5z"/>
	<path class="st0" d="M258.1,49.5c-0.6,0-1.1-0.1-1.7-0.4c-0.5-0.2-1-0.6-1.3-1c-0.4-0.4-0.7-0.9-0.9-1.4s-0.3-1.1-0.3-1.7
		c0-0.6,0.1-1.1,0.3-1.7c0.2-0.5,0.5-1,0.9-1.4c1.2-1.2,3.1-1.6,4.6-0.9c0.5,0.2,0.9,0.5,1.3,0.9s0.6,0.9,0.9,1.4
		c0.2,0.5,0.3,1.1,0.3,1.6v0.3c0,0.1,0,0.1,0,0.2h-7.1c0,0.4,0.1,0.8,0.3,1.2s0.4,0.7,0.7,1c0.3,0.3,0.6,0.5,0.9,0.7
		c0.4,0.2,0.8,0.2,1.1,0.2c0.3,0,0.5,0,0.8-0.1s0.5-0.2,0.7-0.3s0.4-0.3,0.6-0.5s0.3-0.4,0.4-0.6l0.9,0.3c-0.1,0.3-0.3,0.6-0.5,0.8
		c-0.2,0.3-0.5,0.5-0.8,0.7s-0.6,0.3-1,0.4C258.9,49.4,258.5,49.5,258.1,49.5z M261.2,44.7c0-0.4-0.1-0.8-0.3-1.2
		c-0.2-0.4-0.4-0.7-0.7-1c-0.3-0.3-0.6-0.5-1-0.6c-0.7-0.3-1.6-0.3-2.3,0c-0.4,0.1-0.7,0.4-1,0.6c-0.3,0.3-0.5,0.6-0.6,1
		c-0.2,0.4-0.3,0.8-0.3,1.2H261.2z"/>
	<path class="st0" d="M268,42c-0.7,0-1.4,0.2-1.9,0.6c-0.5,0.4-0.9,0.9-1.2,1.6v5.2h-1.1v-8.3h1v2c0.3-0.6,0.7-1.1,1.2-1.5
		c0.5-0.3,1.1-0.5,1.7-0.5h0.2L268,42z"/>
	<path class="st0" d="M273.8,49l-0.3,0.1l-0.4,0.2c-0.2,0.1-0.4,0.1-0.5,0.1c-0.2,0-0.4,0.1-0.6,0.1s-0.5,0-0.7-0.1
		s-0.4-0.2-0.6-0.3s-0.3-0.3-0.4-0.5s-0.1-0.5-0.1-0.7v-6H269V41h1.1v-2.8h1.1V41h1.9v0.9h-1.9v5.6c0,0.3,0.1,0.5,0.3,0.7
		c0.2,0.1,0.4,0.2,0.7,0.2c0.3,0,0.6,0,0.8-0.2c0.2-0.1,0.3-0.1,0.5-0.2L273.8,49z"/>
	<path class="st0" d="M275.7,51.9h0.2h0.2c0.2,0,0.3,0,0.4-0.1s0.3-0.2,0.3-0.3c0.1-0.2,0.3-0.5,0.4-0.8s0.3-0.8,0.6-1.4l-3.6-8.3
		h1.1l3.1,7.3l2.9-7.3h1L278,51.8c-0.1,0.3-0.3,0.6-0.6,0.8c-0.3,0.2-0.7,0.4-1.1,0.3H276c-0.1,0-0.2,0-0.4,0L275.7,51.9z"/>
	<path class="st0" d="M159.5,56.2c-0.4-0.4-0.8-0.7-1.3-0.9c-0.6-0.2-1.2-0.4-1.8-0.3c-0.8-0.1-1.5,0.1-2.2,0.6
		c-0.5,0.4-0.7,0.9-0.7,1.5c0,0.3,0.1,0.6,0.2,0.8c0.1,0.2,0.3,0.4,0.6,0.6c0.3,0.2,0.6,0.3,1,0.4c0.4,0.1,0.9,0.2,1.4,0.3
		c0.6,0.1,1.1,0.3,1.6,0.4c0.4,0.1,0.9,0.3,1.2,0.6c0.3,0.2,0.6,0.5,0.8,0.9s0.3,0.8,0.3,1.3s-0.1,0.9-0.3,1.4
		c-0.2,0.4-0.5,0.7-0.9,1c-0.4,0.3-0.8,0.5-1.3,0.6s-1.1,0.2-1.6,0.2c-1.7,0-3.3-0.6-4.6-1.7l0.6-0.9c0.2,0.2,0.5,0.4,0.7,0.6
		c0.3,0.2,0.6,0.4,1,0.5s0.7,0.3,1.1,0.3c0.4,0.1,0.8,0.1,1.2,0.1c0.7,0,1.5-0.1,2.1-0.5c0.5-0.3,0.8-0.9,0.8-1.5
		c0-0.3-0.1-0.6-0.2-0.9c-0.2-0.3-0.4-0.5-0.6-0.6c-0.3-0.2-0.7-0.3-1.1-0.4c-0.4-0.1-0.9-0.3-1.5-0.4c-0.5-0.1-1-0.3-1.6-0.4
		c-0.4-0.1-0.8-0.3-1.1-0.6c-0.3-0.2-0.5-0.5-0.7-0.8c-0.2-0.4-0.3-0.8-0.3-1.2c0-0.5,0.1-1,0.3-1.4s0.5-0.7,0.8-1
		c0.4-0.3,0.8-0.5,1.3-0.6c0.5-0.2,1.1-0.2,1.6-0.2c0.7,0,1.4,0.1,2,0.3s1.1,0.6,1.6,1L159.5,56.2z"/>
	<path class="st0" d="M166,65.5c-0.6,0-1.1-0.1-1.6-0.4c-0.5-0.2-1-0.6-1.3-1c-0.4-0.4-0.7-0.9-0.9-1.4s-0.3-1.1-0.3-1.7
		c0-0.6,0.1-1.1,0.3-1.7c0.2-0.5,0.5-1,0.9-1.4c0.8-0.8,1.9-1.3,3-1.3c0.6,0,1.1,0.1,1.7,0.3c0.5,0.2,0.9,0.5,1.3,0.9
		c0.8,0.8,1.2,1.9,1.1,3v0.3c0,0.1,0,0.1,0,0.2H163c0,0.4,0.1,0.8,0.3,1.2s0.4,0.7,0.7,1s0.6,0.5,1,0.7c0.4,0.2,0.8,0.2,1.1,0.2
		s0.5,0,0.8-0.1s0.5-0.2,0.7-0.3c0.2-0.1,0.4-0.3,0.6-0.5c0.2-0.2,0.3-0.4,0.4-0.6l0.9,0.3c-0.1,0.3-0.3,0.6-0.5,0.8
		c-0.2,0.3-0.5,0.5-0.8,0.7c-0.3,0.2-0.6,0.3-1,0.4C166.8,65.5,166.4,65.5,166,65.5z M169,60.7c0-0.4-0.1-0.8-0.3-1.2
		s-0.4-0.7-0.7-1s-0.6-0.5-1-0.6c-0.4-0.2-0.7-0.2-1.1-0.2c-0.4,0-0.8,0.1-1.1,0.2c-0.4,0.1-0.7,0.4-0.9,0.6c-0.3,0.3-0.5,0.6-0.7,1
		s-0.3,0.8-0.3,1.2H169z"/>
	<path class="st0" d="M171.2,61.2c0-0.6,0.1-1.1,0.3-1.7c0.2-0.5,0.5-1,0.9-1.4s0.8-0.7,1.3-0.9s1.1-0.3,1.7-0.3
		c0.7,0,1.4,0.2,2.1,0.5c0.6,0.3,1,0.8,1.3,1.4l-1,0.3c-0.2-0.4-0.6-0.8-1-1s-0.9-0.4-1.4-0.4c-0.4,0-0.8,0.1-1.2,0.3
		s-0.7,0.4-1,0.7s-0.5,0.7-0.6,1.1c-0.2,0.4-0.2,0.9-0.2,1.3c0,0.5,0.1,0.9,0.2,1.3c0.2,0.4,0.4,0.8,0.7,1.1s0.6,0.5,1,0.7
		c0.4,0.2,0.8,0.3,1.2,0.3c0.3,0,0.5,0,0.8-0.1s0.5-0.2,0.7-0.3s0.4-0.3,0.6-0.5c0.1-0.2,0.3-0.3,0.3-0.5l1.1,0.3
		c-0.1,0.3-0.3,0.6-0.5,0.8c-0.2,0.3-0.5,0.5-0.8,0.7c-0.3,0.2-0.6,0.3-1,0.4s-0.8,0.2-1.1,0.2c-0.6,0-1.2-0.1-1.7-0.4
		c-0.5-0.2-1-0.6-1.3-1c-0.4-0.4-0.7-0.9-0.9-1.4C171.3,62.3,171.2,61.7,171.2,61.2z"/>
	<path class="st0" d="M183,65.5c-0.8,0.1-1.5-0.3-2-0.9c-0.5-0.8-0.7-1.8-0.7-2.7V57h1.1v4.7c0,1.9,0.6,2.8,1.9,2.8
		c0.3,0,0.6-0.1,0.9-0.2c0.3-0.1,0.6-0.3,0.9-0.5c0.3-0.2,0.5-0.5,0.7-0.7c0.2-0.3,0.4-0.6,0.5-1v-5.2h1.1v6.9
		c0,0.3,0.1,0.4,0.4,0.4v1h-0.3h-0.2c-0.2,0-0.5-0.1-0.6-0.3c-0.2-0.2-0.2-0.4-0.2-0.7v-1c-0.3,0.6-0.9,1.2-1.5,1.5
		C184.4,65.3,183.7,65.5,183,65.5z"/>
	<path class="st0" d="M194,58c-0.7,0-1.4,0.2-1.9,0.6c-0.5,0.4-0.9,0.9-1.1,1.6v5.2h-1.1v-8.3h1v2c0.3-0.6,0.7-1.1,1.2-1.5
		c0.5-0.3,1.1-0.5,1.7-0.5h0.2L194,58z"/>
	<path class="st0" d="M195.3,55.3v-1.6h1.1v1.6H195.3z M195.3,65.4v-8.3h1.1v8.3H195.3z"/>
	<path class="st0" d="M202.7,65c-0.1,0-0.2,0.1-0.3,0.1s-0.3,0.1-0.4,0.2c-0.2,0.1-0.4,0.1-0.5,0.1c-0.2,0-0.4,0.1-0.6,0.1
		c-0.2,0-0.5,0-0.7-0.1s-0.4-0.2-0.6-0.3c-0.2-0.1-0.3-0.3-0.4-0.5c-0.1-0.2-0.1-0.5-0.1-0.7v-6h-1.2V57h1.2v-2.8h1.1V57h1.9v0.9
		h-1.9v5.6c0,0.3,0.1,0.5,0.3,0.7c0.2,0.1,0.4,0.2,0.7,0.2s0.6,0,0.8-0.2c0.2-0.1,0.3-0.1,0.4-0.2L202.7,65z"/>
	<path class="st0" d="M203.9,55.3v-1.6h1.1v1.6H203.9z M203.9,65.4v-8.3h1.1v8.3H203.9z"/>
	<path class="st0" d="M211,65.5c-0.6,0-1.1-0.1-1.7-0.4c-0.5-0.2-1-0.6-1.3-1c-0.4-0.4-0.7-0.9-0.9-1.4s-0.3-1.1-0.3-1.7
		c0-1.1,0.4-2.2,1.2-3c1.2-1.2,3.1-1.6,4.7-0.9c0.5,0.2,0.9,0.5,1.3,0.9c0.8,0.8,1.2,1.9,1.1,3v0.3c0,0.1,0,0.1,0,0.2H208
		c0,0.4,0.1,0.8,0.3,1.2s0.4,0.7,0.7,1s0.6,0.5,1,0.7c0.4,0.2,0.7,0.2,1.1,0.2c0.3,0,0.5,0,0.8-0.1s0.5-0.2,0.7-0.3s0.4-0.3,0.6-0.5
		c0.2-0.2,0.3-0.4,0.4-0.6l0.9,0.3c-0.1,0.3-0.3,0.6-0.5,0.8c-0.2,0.3-0.5,0.5-0.8,0.7c-0.3,0.2-0.6,0.3-1,0.4
		C211.8,65.5,211.4,65.5,211,65.5z M214.1,60.7c0-0.4-0.1-0.8-0.3-1.2s-0.4-0.7-0.7-1s-0.6-0.5-0.9-0.6c-0.4-0.1-0.8-0.2-1.1-0.2
		c-0.4,0-0.8,0.1-1.1,0.2c-0.4,0.1-0.7,0.4-0.9,0.6c-0.3,0.3-0.5,0.6-0.7,1s-0.3,0.8-0.3,1.2H214.1z"/>
	<path class="st0" d="M219.5,65.5c-0.6,0-1.3-0.1-1.9-0.3c-0.6-0.2-1.1-0.5-1.6-0.9l0.5-0.7c0.4,0.4,0.9,0.6,1.4,0.9
		c0.5,0.2,1,0.3,1.6,0.3s1.1-0.1,1.6-0.4c0.4-0.3,0.6-0.7,0.6-1.2c0-0.2,0-0.4-0.2-0.6c-0.1-0.2-0.3-0.3-0.5-0.4
		c-0.2-0.1-0.5-0.2-0.8-0.3s-0.7-0.2-1.1-0.3s-0.9-0.2-1.2-0.4c-0.3-0.1-0.6-0.2-0.9-0.4c-0.2-0.1-0.4-0.3-0.5-0.6s-0.2-0.5-0.2-0.8
		c0-0.4,0.1-0.8,0.2-1.1c0.2-0.3,0.4-0.6,0.7-0.8s0.6-0.4,1-0.5s0.8-0.2,1.2-0.2c0.6,0,1.2,0.1,1.7,0.3s0.9,0.5,1.3,0.8l-0.5,0.6
		c-0.3-0.3-0.7-0.6-1.1-0.7c-0.4-0.2-0.9-0.2-1.4-0.2c-0.3,0-0.5,0-0.8,0.1c-0.2,0.1-0.5,0.2-0.6,0.3c-0.2,0.1-0.3,0.3-0.4,0.5
		c-0.1,0.2-0.2,0.5-0.2,0.7s0,0.4,0.1,0.5c0.1,0.2,0.2,0.3,0.4,0.4c0.2,0.1,0.4,0.2,0.6,0.3c0.3,0.1,0.6,0.2,0.9,0.2
		c0.5,0.1,1,0.3,1.4,0.4c0.4,0.1,0.7,0.2,1,0.4s0.5,0.4,0.6,0.6c0.1,0.3,0.2,0.6,0.2,0.9c0,0.7-0.3,1.4-0.9,1.8
		C221.1,65.3,220.3,65.6,219.5,65.5z"/>
	<path class="st0" d="M228,65.4V54h4.8c0.5,0,0.9,0.1,1.4,0.3c0.4,0.2,0.8,0.5,1.1,0.8s0.5,0.7,0.7,1.1c0.2,0.4,0.3,0.9,0.2,1.3
		c0,0.4-0.1,0.8-0.2,1.2c-0.1,0.4-0.3,0.7-0.5,1s-0.5,0.6-0.8,0.8s-0.6,0.4-1,0.4l2.8,4.4h-1.3l-2.7-4.2h-3.4v4.2L228,65.4L228,65.4
		z M229.1,60.2h3.7c0.3,0,0.6-0.1,0.9-0.2c0.3-0.1,0.5-0.3,0.7-0.6s0.3-0.5,0.4-0.8c0.1-0.3,0.2-0.7,0.2-1s-0.1-0.7-0.2-1
		c-0.1-0.3-0.3-0.6-0.5-0.8s-0.5-0.4-0.7-0.6c-0.3-0.1-0.6-0.2-0.9-0.2h-3.6L229.1,60.2z"/>
	<path class="st0" d="M241.6,65.5c-0.6,0-1.1-0.1-1.7-0.3c-0.5-0.2-1-0.6-1.3-1c-0.4-0.4-0.7-0.9-0.9-1.4s-0.3-1.1-0.3-1.7
		c0-0.6,0.1-1.1,0.3-1.7c0.2-0.5,0.5-1,0.9-1.4c1.2-1.2,3.1-1.6,4.6-0.9c0.5,0.2,0.9,0.5,1.3,0.9c0.4,0.4,0.6,0.9,0.9,1.4
		c0.2,0.5,0.3,1.1,0.3,1.6v0.3c0,0.1,0,0.1,0,0.2h-7.1c0,0.4,0.1,0.8,0.3,1.2s0.4,0.7,0.7,1s0.6,0.5,0.9,0.7
		c0.4,0.2,0.8,0.2,1.1,0.2s0.5,0,0.8-0.1s0.5-0.2,0.7-0.3s0.4-0.3,0.6-0.5c0.2-0.2,0.3-0.4,0.4-0.6l0.9,0.3
		c-0.1,0.3-0.3,0.6-0.5,0.8c-0.2,0.3-0.5,0.5-0.8,0.7c-0.3,0.2-0.6,0.3-1,0.4C242.4,65.4,242,65.5,241.6,65.5z M244.7,60.7
		c0-0.4-0.1-0.8-0.3-1.2s-0.4-0.7-0.7-1s-0.6-0.5-0.9-0.6c-0.7-0.3-1.6-0.3-2.3,0c-0.4,0.1-0.7,0.4-1,0.6c-0.3,0.3-0.5,0.6-0.6,1
		c-1.2,2.7-0.1-1.2-0.3,1.2H244.7z"/>
	<path class="st0" d="M250.8,65.5c-0.5,0-1.1-0.1-1.6-0.4c-0.5-0.2-0.9-0.6-1.2-1c-0.4-0.4-0.6-0.9-0.8-1.4s-0.3-1-0.3-1.6
		s0.1-1.1,0.3-1.7c0.2-0.5,0.4-1,0.8-1.3c0.3-0.4,0.8-0.8,1.2-1c0.5-0.2,1-0.4,1.6-0.3c0.7,0,1.3,0.2,1.9,0.5c0.5,0.4,1,0.8,1.3,1.3
		v-1.7h1v8.4c0,0.5-0.1,1.1-0.3,1.5s-0.5,0.8-0.9,1.1c-0.4,0.3-0.8,0.5-1.3,0.7c-0.5,0.1-1,0.2-1.6,0.2c-0.8,0-1.6-0.1-2.3-0.5
		c-0.6-0.3-1.1-0.8-1.4-1.4l0.7-0.5c0.3,0.5,0.8,0.9,1.3,1.2c0.6,0.3,1.2,0.4,1.8,0.4c0.4,0,0.8-0.1,1.1-0.2
		c0.3-0.1,0.7-0.3,0.9-0.5c0.3-0.2,0.5-0.5,0.6-0.8c0.2-0.4,0.2-0.8,0.2-1.2v-1.7c-0.3,0.5-0.8,1-1.3,1.3
		C252,65.3,251.4,65.5,250.8,65.5z M251.1,64.6c0.3,0,0.6-0.1,0.9-0.2c0.3-0.1,0.6-0.3,0.8-0.5c0.2-0.2,0.5-0.4,0.6-0.7
		c0.2-0.2,0.3-0.5,0.3-0.8v-2.6c-0.1-0.3-0.3-0.6-0.5-0.8c-0.2-0.3-0.4-0.5-0.7-0.7s-0.5-0.3-0.8-0.4c-0.3-0.1-0.6-0.2-0.9-0.2
		c-0.4,0-0.9,0.1-1.3,0.3c-0.4,0.2-0.7,0.5-0.9,0.8c-0.3,0.3-0.5,0.7-0.6,1.1c-0.1,0.4-0.2,0.8-0.2,1.2c0,0.9,0.3,1.7,0.9,2.3
		c0.3,0.3,0.6,0.5,1,0.7C250.2,64.5,250.7,64.6,251.1,64.6L251.1,64.6z"/>
	<path class="st0" d="M256.6,55.3v-1.6h1.1v1.6H256.6z M256.6,65.4v-8.3h1.1v8.3H256.6z"/>
	<path class="st0" d="M262.8,65.5c-0.6,0-1.3-0.1-1.9-0.3c-0.6-0.2-1.1-0.5-1.6-0.9l0.5-0.7c0.4,0.4,0.9,0.6,1.4,0.9
		c0.5,0.2,1,0.3,1.6,0.3s1.1-0.1,1.6-0.4c0.4-0.3,0.6-0.7,0.6-1.2c0-0.2,0-0.4-0.2-0.6c-0.1-0.2-0.3-0.3-0.5-0.4
		c-0.2-0.1-0.5-0.2-0.8-0.3s-0.7-0.2-1.1-0.3s-0.9-0.2-1.2-0.4c-0.3-0.1-0.6-0.2-0.9-0.4c-0.2-0.1-0.4-0.3-0.5-0.6s-0.2-0.5-0.2-0.8
		c0-0.4,0.1-0.8,0.2-1.1c0.2-0.3,0.4-0.6,0.7-0.8c0.3-0.2,0.6-0.4,1-0.5s0.8-0.2,1.2-0.2c0.6,0,1.2,0.1,1.7,0.3s0.9,0.5,1.3,0.8
		l-0.5,0.6c-0.3-0.3-0.7-0.6-1.1-0.7c-0.4-0.2-0.9-0.2-1.4-0.2c-0.3,0-0.5,0-0.8,0.1c-0.2,0.1-0.5,0.2-0.6,0.3
		c-0.2,0.1-0.3,0.3-0.4,0.5s-0.2,0.5-0.2,0.7s0,0.4,0.1,0.5c0.1,0.2,0.2,0.3,0.4,0.4c0.2,0.1,0.4,0.2,0.6,0.3c0.3,0.1,0.6,0.2,1,0.2
		c0.5,0.1,1,0.3,1.4,0.4c0.4,0.1,0.7,0.2,1,0.4s0.5,0.4,0.6,0.6c0.1,0.3,0.2,0.6,0.2,0.9c0,0.7-0.3,1.4-0.9,1.8
		C264.5,65.4,263.6,65.6,262.8,65.5z"/>
	<path class="st0" d="M271.8,65c-0.1,0-0.2,0.1-0.3,0.1c-0.1,0-0.3,0.1-0.4,0.2c-0.2,0.1-0.4,0.1-0.5,0.1c-0.2,0-0.4,0.1-0.6,0.1
		s-0.5,0-0.7-0.1s-0.4-0.2-0.6-0.3s-0.3-0.3-0.4-0.5c-0.1-0.2-0.1-0.5-0.1-0.7v-6H267V57h1.1v-2.8h1.1V57h1.9v0.9h-1.9v5.6
		c0,0.3,0.1,0.5,0.3,0.7c0.2,0.1,0.4,0.2,0.7,0.2c0.3,0,0.6,0,0.8-0.2c0.2-0.1,0.3-0.1,0.4-0.2L271.8,65z"/>
	<path class="st0" d="M276.4,65.5c-0.6,0-1.1-0.1-1.7-0.3c-0.5-0.2-1-0.6-1.3-1c-0.4-0.4-0.7-0.9-0.9-1.4c-0.2-0.5-0.3-1.1-0.3-1.6
		c0-0.6,0.1-1.1,0.3-1.7c0.2-0.5,0.5-1,0.9-1.4c0.8-0.8,1.9-1.3,3-1.3c0.6,0,1.1,0.1,1.7,0.3c0.5,0.2,0.9,0.6,1.2,1
		c0.4,0.4,0.6,0.9,0.9,1.4c0.2,0.5,0.3,1.1,0.3,1.6v0.3c0,0.1,0,0.1,0,0.2h-7.1c0,0.4,0.1,0.8,0.3,1.2c0.2,0.4,0.4,0.7,0.7,1
		c0.3,0.3,0.6,0.5,1,0.7c0.4,0.2,0.8,0.2,1.1,0.2c0.3,0,0.5,0,0.8-0.1s0.5-0.2,0.7-0.3s0.4-0.3,0.6-0.5s0.3-0.4,0.4-0.6l0.9,0.3
		c-0.1,0.3-0.3,0.6-0.5,0.8c-0.2,0.3-0.5,0.5-0.8,0.7c-0.3,0.2-0.6,0.3-1,0.4C277.2,65.5,276.8,65.5,276.4,65.5z M279.5,60.7
		c0-0.4-0.1-0.8-0.3-1.2c-0.2-0.4-0.4-0.7-0.7-1c-0.9-0.8-2.1-1.1-3.2-0.6c-0.4,0.1-0.7,0.4-1,0.6c-0.3,0.3-0.5,0.6-0.7,1
		s-0.3,0.8-0.3,1.2H279.5z"/>
	<path class="st0" d="M286.3,58c-0.7,0-1.4,0.2-1.9,0.6c-0.5,0.4-0.9,0.9-1.1,1.6v5.2h-1.1v-8.3h1v2c0.3-0.6,0.7-1.1,1.2-1.5
		s1.1-0.5,1.7-0.5h0.2L286.3,58z"/>
</g>
</svg>
