<svg xmlns="http://www.w3.org/2000/svg" width="800" height="100" viewBox="-90 0 800 100">
	<g fill="none" fill-rule="evenodd" transform="scale(0.67) translate(6 14)">
		<g fill="#D8F9FB" transform="translate(.726 7.237)">
			<circle cx="53.193" cy="10.924" r="10.924"/>
			<circle cx="28.048" cy="16.438" r="7.14"/>
			<path fill-rule="nonzero" d="M48.0653677,28.0998252 C49.6138549,28.0979914 51.1580571,28.2813866 52.6728,28.6475656 C49.2282061,26.2218583 45.2565586,24.9478731 41.2093883,24.9698804 C29.1294739,25.0010576 19.3527403,36.002936 19.38,50.9796 L26.3731561,50.9637058 C27.6211585,37.61498 36.8494139,28.1310025 48.0653677,28.0998252 L48.0653677,28.0998252 Z"/>
			<path fill-rule="nonzero" d="M28.4164422 28.8129404C29.934567 28.8112864 31.4484906 28.9767016 32.9335327 29.3069807 29.5564799 27.1190879 25.6627078 25.9700032 21.6948938 25.9898529 9.85184049 26.0179735.266807485 35.9412364.293532703 49.4496L7.14956805 49.4352641C8.37309984 37.3952369 17.4204091 28.841061 28.4164422 28.8129404L28.4164422 28.8129404zM65.9225999 46.5689206C65.9225999 42.847334 67.9549914 39.4222025 71.2215193 37.6394968 74.4880471 35.8563939 78.4677994 35.9998528 81.5976426 38.0134438 79.5084315 34.7675366 75.7631096 32.9836389 71.9271942 33.40726 68.0908815 33.830881 64.8251483 36.3892981 63.4944584 40.0123313 62.1637684 43.6357619 62.997784 47.6999014 65.6480383 50.5062918 66.211863 51.1039711 66.8472089 51.630517 67.5397716 52.0728155 66.4800672 50.4331715 65.9182291 48.5213131 65.9225999 46.5689206L65.9225999 46.5689206z"/>
		</g>
		<path fill="#34798B" fill-rule="nonzero" d="M45.4308.5202C53.1878934.5202 59.4762 6.80834604 59.4762 14.5656 59.4762 22.3225237 53.1877237 28.6109998 45.4303125 28.6109998 37.6764387 28.6037333 31.3926671 22.3198013 31.3854 14.5656 31.3854 6.80834604 37.6737066.5202 45.4308.5202zM45.4308 4.11978638C39.6646548 4.12645218 34.9916523 8.7994547 34.9849864 14.5655999 34.9849864 20.3348759 39.6615241 25.0114136 45.4308 25.0114136 51.2000759 25.0114136 55.8766136 20.3348759 55.8766136 14.5655999 55.8766136 8.79632404 51.2000759 4.11978638 45.4308 4.11978638zM44.9113316 30.9001485L44.8649903 30.9001461C37.6065104 30.9156158 30.8752628 33.73863 25.8898016 38.8641956 20.8270625 44.0348237 18.0528846 51.1050607 18.0682169 58.7792452 18.0720132 59.2761624 18.2661378 59.750881 18.610483 60.1067109 18.9676475 60.4637481 19.4488095 60.6603121 19.9488155 60.6555519L58.7743784 60.5763781 58.7743784 56.8231126 21.8896692 56.9005164 21.8698717 57.2307951C22.1955991 51.1426696 24.5526233 45.6028739 28.5746121 41.4903498 32.7390588 37.2083779 38.3404036 34.7942398 44.3880561 34.6592938L44.9127376 34.6533838C50.6685744 34.6233489 54.3825972 36.1887438 58.7398765 40.3706352L58.9643599 40.5860828 61.5735756 37.8844273 61.3476824 37.6676258C56.2935469 32.8169052 51.6448113 30.8698172 44.9113316 30.9001485z"/>
		<path fill="#34798B" fill-rule="nonzero" d="M27.54,31.7478199 C26.666193,31.657311 25.7537127,31.6159572 24.7933479,31.6203106 L24.7523068,31.6203084 C18.3239924,31.6340957 12.3626099,34.1500854 7.94734495,38.7182063 C3.46364058,43.3264888 1.00675044,49.6277831 1.02005374,56.4673411 C1.02369124,56.9102147 1.19561347,57.333304 1.50057525,57.6504346 C1.81689023,57.9686413 2.24302084,58.1438275 2.68584029,58.1399365 L15.390675,58.0690219 L15.390675,54.7239529 L4.40471498,54.7929385 L4.38718175,55.0872968 C4.67565508,49.6613018 6.76310217,44.7240015 10.3250887,41.0587461 C14.0132401,37.2424715 18.9739489,35.0908895 24.3299204,34.9706199 L24.7945931,34.9653526 C25.605121,34.9610964 26.3699313,34.9927893 27.0985833,35.0640898"/>
		<path fill="#34798B" fill-rule="nonzero" d="M27.5632134,24.8806814 L23.0867971,20.297398 C24.4931592,18.2027065 25.3250053,15.6475915 25.3250053,12.9647993 C25.3250053,5.82928175 19.6345849,0 12.6625026,0 C5.693362,0 0,5.82626988 0,12.9647993 C0,20.1003168 5.69042035,25.9295985 12.6625026,25.9295985 C15.6675848,25.9295985 18.417895,24.8170392 20.5908753,23.0497251 L25.0023196,27.5664855 C25.38701,27.9603598 25.8341656,28.0908 26.2812957,28.0908 C26.7284385,28.0908 27.1755558,27.8938629 27.5602718,27.5664855 C28.2672258,26.7813035 28.2672258,25.6022212 27.5627702,24.8809433 L27.5632134,24.8806814 Z M3.64763977,12.9647993 C3.64763977,7.85718823 7.676926,3.73144745 12.6657001,3.73144745 C17.6542184,3.73144745 21.6837604,7.85692633 21.6837604,12.9647993 C21.6837604,18.0726722 17.6544742,22.1981511 12.6657001,22.1981511 C7.67718179,22.1981511 3.64763977,18.0062146 3.64763977,12.9647993 L3.64763977,12.9647993 Z" transform="translate(60.18 36.72)"/>
		<path stroke="#34798B" stroke-linecap="square" stroke-width="3.213" d="M29.0107165,5.89034307 C27.7814075,5.38036982 26.4406443,5.1 25.0370989,5.1 C19.0961172,5.1 14.28,10.1233651 14.28,16.32 C14.28,22.5166349 19.0961172,27.54 25.0370989,27.54 C26.6604947,27.54 28.1998996,27.1649172 29.58,26.4933059" transform="rotate(-3 21.93 16.32)"/>
	</g>
	<g fill="none" transform="translate(60 12)">
		<path fill="white" d="M17.9685,0 C13.2028755,0 8.63244568,1.89289636 5.26344651,5.26344651 C1.89285853,8.63252134 0,13.2028755 0,17.9685 C0,22.7341245 1.89289636,27.3045543 5.26344651,30.6735535 C8.63252134,34.0441415 13.2028755,35.937 17.9685,35.937 C22.7341245,35.937 27.3045543,34.0441036 30.6735535,30.6735535 C34.0441415,27.3044787 35.937,22.7341245 35.937,17.9685 C35.937,13.2028755 34.0441036,8.63244568 30.6735535,5.26344651 C27.3044787,1.89285853 22.7341245,0 17.9685,0 Z"/>
		<polygon fill="#34798B" points="20.457 27.426 17.775 24.744 22.826 19.693 7 19.693 7 16.244 22.826 16.244 17.775 11.193 20.457 8.511 29.914 17.968"/>
	</g>
	<g fill="none" fill-rule="evenodd" transform=" scale(0.6)  translate(190 13)">
		<rect width="31.657" height="9.593" x="19.39" y="55.599" fill="#D8F9FB" rx="4.797"/>
		<rect width="31.657" height="9.593" x="19.39" y="22.023" fill="#D8F9FB" rx="4.797"/>
		<path fill="#35798B" fill-rule="nonzero" d="M37.3817615,0 C40.8418829,0.00433368234 43.8372003,1.98560334 44.5960376,4.77192375 L44.5960376,4.77192375 L52.7558308,4.77192375 C57.8586288,4.77787453 61.9933187,8.1908305 62,12.4024701 L62,12.4024701 L62,65.3691902 C61.9934929,69.5813434 57.8579751,72.9946293 52.754554,73 L52.754554,73 L9.24544603,73 C4.14202495,72.9946293 0.00650711822,69.5813434 0,65.3691902 L0,65.3691902 L0,12.4024701 C0.00668293574,8.19041972 4.14214938,4.77729413 9.24544603,4.77192375 L9.24544603,4.77192375 L17.4052393,4.77192375 C18.1640766,1.98560334 21.159394,0.00433368234 24.6195154,0 L24.6195154,0 Z M17.5033103,8 L9.28100584,8 C6.29673459,8.00276299 3.87833703,10.005141 3.875,12.4760494 L3.875,12.4760494 L3.875,65.5239506 C3.87833703,67.994859 6.29673459,69.997237 9.28100584,70 L9.28100584,70 L52.7189942,70 C55.7033381,69.9973821 58.1218382,67.9949192 58.125,65.5239506 L58.125,65.5239506 L58.125,12.4760494 C58.1218403,10.005698 55.7045035,8.00349007 52.7209063,8 L52.7209063,8 L44.4986019,8 C43.6273651,10.6662638 40.707636,12.5192279 37.3716486,12.5230185 L37.3716486,12.5230185 L24.6302636,12.5230185 C21.2942762,12.5192279 18.3745471,10.6662638 17.5033103,8 L17.5033103,8 Z M23.3928571,53 C24.2804576,53 25,53.7195424 25,54.6071429 L25,54.6071429 L25,56.4044643 C25,57.2920648 24.2804576,58.0116071 23.3928571,58.0116071 C22.5052567,58.0116071 21.7857143,57.2920648 21.7857143,56.4044643 L21.7857143,56.4044643 L21.7857143,56.2142857 L16.2142857,56.2142857 L16.2142857,61.7857143 L16.5598214,61.7857143 C17.4474219,61.7857143 18.1669643,62.5052567 18.1669643,63.3928571 C18.1669643,64.2804576 17.4474219,65 16.5598214,65 L16.5598214,65 L14.6071429,65 C13.7195424,65 13,64.2804576 13,63.3928571 L13,63.3928571 L13,54.6071429 C13,53.7195424 13.7195424,53 14.6071429,53 L14.6071429,53 Z M28.2532982,55.4710303 C28.6597275,55.0648248 29.2521367,54.906158 29.807371,55.0547981 C30.3626052,55.2034381 30.7963113,55.6368031 30.9451162,56.1916486 C31.0939211,56.7464941 30.935218,57.3385259 30.5287887,57.7447314 L30.5287887,57.7447314 L23.7395896,64.5291232 C23.1112921,65.1569589 22.0926648,65.1569589 21.4643673,64.5291232 L21.4643673,64.5291232 L18.480434,61.5471849 C18.0685177,61.1420985 17.905657,60.5473529 18.0537834,59.9891136 C18.2019098,59.4308743 18.6382635,58.994915 19.1969112,58.8470193 C19.7555589,58.6991235 20.3506641,58.8620155 20.7559244,59.2737518 L20.7559244,59.2737518 L22.6021125,61.1184375 Z M48.6524093,56.9851246 C49.7225942,56.9851246 50.5901504,57.7686263 50.5901504,58.7351246 C50.5901504,59.7016229 49.7225942,60.4851246 48.6524093,60.4851246 L48.6524093,60.4851246 L34.5278915,60.4851246 C33.4577067,60.4851246 32.5901504,59.7016229 32.5901504,58.7351246 C32.5901504,57.7686263 33.4577067,56.9851246 34.5278915,56.9851246 L34.5278915,56.9851246 Z M23.3928571,36 C24.2804576,36 25,36.7195424 25,37.6071429 L25,37.6071429 L25,46.3928571 C25,47.2804576 24.2804576,48 23.3928571,48 L23.3928571,48 L14.6071429,48 C13.7195424,48 13,47.2804576 13,46.3928571 L13,46.3928571 L13,37.6071429 C13,36.7195424 13.7195424,36 14.6071429,36 L14.6071429,36 Z M21.7857143,39.2142857 L16.2142857,39.2142857 L16.2142857,44.7857143 L21.7857143,44.7857143 L21.7857143,39.2142857 Z M48.6524093,40.0668361 C49.7225942,40.0668361 50.5901504,40.8503378 50.5901504,41.8168361 C50.5901504,42.7833345 49.7225942,43.5668361 48.6524093,43.5668361 L48.6524093,43.5668361 L34.5278915,43.5668361 C33.4577067,43.5668361 32.5901504,42.7833345 32.5901504,41.8168361 C32.5901504,40.8503378 33.4577067,40.0668361 34.5278915,40.0668361 L34.5278915,40.0668361 Z M23.392857,18 C24.2804575,18 25,18.7195424 25,19.6071429 L25,19.6071429 L25,20.8623214 C25.0003967,21.681702 24.3843009,22.3701938 23.5699075,22.4604606 C22.7555142,22.5507274 22.0036009,22.0138648 21.8245534,21.2142857 L21.8245534,21.2142857 L16.2140178,21.2142857 L16.2140178,26.7857143 L16.5592857,26.7857143 C17.4468861,26.7857143 18.1664285,27.5052567 18.1664285,28.3928571 C18.1664285,29.2804576 17.4468861,30 16.5592857,30 L16.5592857,30 L14.606875,30 C13.7193791,29.9998521 13,29.280353 13,28.3928571 L13,28.3928571 L13,19.6071429 C13,18.7195424 13.7195424,18 14.6071428,18 L14.6071428,18 Z M28.244108,20.4799341 C28.6493636,20.0685824 29.2444617,19.9058427 29.8031028,20.0536002 C30.361744,20.2013578 30.7980926,20.6369097 30.9462172,21.1946274 C31.0943419,21.7523451 30.9314831,22.346535 30.5195717,22.7512429 L30.5195717,22.7512429 L23.7304525,29.5295632 C23.1021624,30.1568123 22.0835471,30.1568123 21.455257,29.5295632 L21.455257,29.5295632 L18.4713588,26.5506789 C17.8429328,25.9233265 17.8428727,24.9061272 18.4712247,24.2787008 C19.0995766,23.6512744 20.1183965,23.6512145 20.7468225,24.2785669 L20.7468225,24.2785669 L22.5929888,26.1217967 L28.2430354,20.4788632 Z M48.6524093,23.1488129 C49.7225942,23.1488129 50.5901504,23.9323146 50.5901504,24.8988129 C50.5901504,25.8653112 49.7225942,26.6488129 48.6524093,26.6488129 L48.6524093,26.6488129 L34.5278915,26.6488129 C33.4577067,26.6488129 32.5901504,25.8653112 32.5901504,24.8988129 C32.5901504,23.9323146 33.4577067,23.1488129 34.5278915,23.1488129 L34.5278915,23.1488129 Z M37.0430489,3 L23.9882011,3 C21.9763961,3.00184847 20.3460892,4.29013538 20.34375,5.87988647 L20.34375,5.87988647 L20.34375,6.12011353 C20.3460892,7.70986462 21.9763961,8.99815153 23.9882011,9 L23.9882011,9 L37.0430489,9 C39.0548539,8.99815153 40.6851608,7.70986462 40.6875,6.12011353 L40.6875,6.12011353 L40.6875,5.87988647 C40.6851608,4.29013538 39.0548539,3.00184847 37.0430489,3 L37.0430489,3 Z"/>
	</g>
	<g fill="none" transform="translate(168 12)">
		<path fill="white" d="M17.9685,0 C13.2028755,0 8.63244568,1.89289636 5.26344651,5.26344651 C1.89285853,8.63252134 0,13.2028755 0,17.9685 C0,22.7341245 1.89289636,27.3045543 5.26344651,30.6735535 C8.63252134,34.0441415 13.2028755,35.937 17.9685,35.937 C22.7341245,35.937 27.3045543,34.0441036 30.6735535,30.6735535 C34.0441415,27.3044787 35.937,22.7341245 35.937,17.9685 C35.937,13.2028755 34.0441036,8.63244568 30.6735535,5.26344651 C27.3044787,1.89285853 22.7341245,0 17.9685,0 Z"/>
		<polygon fill="#34798B" points="20.457 27.426 17.775 24.744 22.826 19.693 7 19.693 7 16.244 22.826 16.244 17.775 11.193 20.457 8.511 29.914 17.968"/>
	</g>
	<g fill="none" fill-rule="evenodd" transform=" scale(0.7) translate(313 14)">
		<path fill="#D8F9FB" d="M45.15,41.90999 C45.15,50.4640361 36.1687593,56.0712434 33.0715227,57.75 C29.9673317,56.0772532 21,50.5000953 21,41.90999 L21,32.6963609 C21,32.4574687 21.168895,32.2536339 21.401374,32.2110641 C25.7866834,31.4147566 29.7040543,29.070407 31.6488306,27.7442293 C32.0745455,27.4532516 32.5678182,27.3 33.075,27.3 C33.5821819,27.3 34.0754546,27.4537524 34.5016661,27.7442293 C36.4464426,29.070407 40.3633166,31.4147566 44.748626,32.2110641 C44.981105,32.2536339 45.15,32.4574687 45.15,32.6963609 L45.15,41.90999 Z"/>
		<path fill="#34798B" fill-rule="nonzero" d="M53.5861186,25.6698123 C50.4041913,25.0965563 47.3876274,23.2254453 46.2384393,22.4476122 C45.1138798,21.6864972 43.8050456,21.2843822 42.4531113,21.2843822 C41.1016168,21.2843822 39.7927826,21.6864972 38.6682231,22.4476122 C37.519035,23.2254453 34.5020313,25.0965563 31.3201041,25.6698123 C28.9685124,26.0939249 27.2616624,28.1366166 27.2616624,30.5277495 L27.2616624,38.6215253 C27.2616624,50.5873085 40.9516463,56.8500089 41.5343765,57.1108997 L42.4531113,57.5218138 L43.3722859,57.1108997 C43.9550162,56.8500089 57.645,50.5873085 57.645,38.6215253 L57.645,30.5277495 C57.645,28.1366166 55.93815,26.0939249 53.5861186,25.6698123 L53.5861186,25.6698123 Z M53.1436833,38.6215253 C53.1436833,46.1358858 45.1921636,51.0615756 42.4500327,52.5362908 C39.7017447,51.0668549 31.7625392,46.1675622 31.7625392,38.6215253 L31.7625392,30.5277495 C31.7625392,30.317893 31.91207,30.1388329 32.1178948,30.1014371 C36.0004178,29.4019154 39.4686526,27.3425053 41.1904556,26.1775155 C41.5673613,25.9219041 42.0040791,25.7872792 42.4531113,25.7872792 C42.9021435,25.7872792 43.3388614,25.922344 43.7162067,26.1775155 C45.4380098,27.3425053 48.9058048,29.4019154 52.7883278,30.1014371 C52.9941525,30.1388329 53.1436833,30.317893 53.1436833,30.5277495 L53.1436833,38.6215253 Z M31.5848615,55.9551488 C32.3039287,56.5723999 33.0212367,57.135537 33.7152355,57.645 L12.4070976,57.645 C8.6842206,57.645 5.65534255,54.6146185 5.65534255,50.8904346 L5.65534255,27.2505556 L3.03371584,29.6430083 L0,26.31654 L28.8365735,0 L47.2253426,16.7814852 L40.5465936,16.7814852 L28.8365735,6.09507913 L10.1566592,23.1431745 L10.1566592,50.8904346 C10.1566592,52.131976 11.165992,53.1421031 12.4070976,53.1421031 L28.6997968,53.1421031 C29.570154,54.1113148 30.5315491,55.0506099 31.5848615,55.9551488 Z"/>
	</g>

	<g fill="none" transform="translate(278 12)">
		<path fill="white" d="M17.9685,0 C13.2028755,0 8.63244568,1.89289636 5.26344651,5.26344651 C1.89285853,8.63252134 0,13.2028755 0,17.9685 C0,22.7341245 1.89289636,27.3045543 5.26344651,30.6735535 C8.63252134,34.0441415 13.2028755,35.937 17.9685,35.937 C22.7341245,35.937 27.3045543,34.0441036 30.6735535,30.6735535 C34.0441415,27.3044787 35.937,22.7341245 35.937,17.9685 C35.937,13.2028755 34.0441036,8.63244568 30.6735535,5.26344651 C27.3044787,1.89285853 22.7341245,0 17.9685,0 Z"/>
		<polygon fill="#34798B" points="20.457 27.426 17.775 24.744 22.826 19.693 7 19.693 7 16.244 22.826 16.244 17.775 11.193 20.457 8.511 29.914 17.968"/>
	</g>
	

	<g fill="none" fill-rule="evenodd" transform="scale(0.7)  translate(480 15)">
		<circle cx="27.5" cy="27.5" r="10.5" fill="#D8F9FB"/>
		<path fill="#34798B" fill-rule="nonzero" d="M15.2268696,0 C14.7247039,0 14.2415715,0.201719464 13.8846051,0.559324229 L0.554567195,14.0017589 C0.197576364,14.364156 -0.0023346021,14.8537459 2.05766294e-05,15.3649873 L2.05766294e-05,55.6800033 C2.05766294e-05,56.7408245 0.852033153,57.6 1.90398449,57.6 L38.0715899,57.6 C39.1235412,57.6 39.977909,56.7408245 39.977909,55.6800033 C39.977909,54.619182 39.1235412,53.7576104 38.0715899,53.7576104 L3.80792747,53.7576104 L3.80792747,17.2752151 L11.4163882,17.2752151 C14.5483592,17.2752151 17.1305933,14.6807926 17.1305933,11.5224134 L17.1305933,3.83996887 L45.6897379,3.83996887 L45.6897379,46.0749816 C45.6897379,47.1358028 46.5441057,47.9973745 47.596057,47.9973745 C48.6480084,47.9973745 49.5,47.1358028 49.5,46.0749816 L49.5,1.91997215 C49.5,1.41117609 49.300089,0.921573851 48.940716,0.561597506 C48.5837252,0.201596584 48.100605,0 47.5936992,0 L15.2268696,0 Z M13.3229267,6.55453089 L13.3229267,11.5224994 C13.3229267,12.6193244 12.5042007,13.4448923 11.4166076,13.4448923 L6.49493021,13.4448923 L13.3229267,6.55453089 Z"/>
		<path fill="#34798B" fill-rule="nonzero" d="M26.2513458,18.9 C17.7448276,18.9 10.8,25.843047 10.8,34.3501083 C10.8,42.8571696 17.7448276,49.7900848 26.2513458,49.7900848 C29.810678,49.7900848 33.0831238,48.5641289 35.6987083,46.529786 L46.1233628,56.9501638 C47.9404341,58.8904163 50.7903339,56.0403346 48.8502053,54.2231472 L38.4304928,43.797827 C40.4647677,41.1818284 41.6905835,37.9094826 41.6905835,34.3498612 C41.6905835,25.8427999 34.7574932,18.9 26.2515929,18.9 L26.2513458,18.9 Z M26.2513458,22.7614768 C32.6704619,22.7614768 37.8268822,27.9282964 37.8268822,34.3501083 C37.8268822,40.7696344 32.6700295,45.9263839 26.2513458,45.9263839 C19.8297586,45.9263839 14.6634542,40.7692019 14.6634542,34.3501083 C14.6634542,27.9281111 19.8299439,22.7614768 26.2513458,22.7614768 L26.2513458,22.7614768 Z"/>
		<path fill="#34798B" fill-rule="nonzero" d="M18.9,29.2794156 L20.9184302,31.2978458 C23.782211,28.4411576 28.417789,28.4411576 31.2815698,31.2978458 L33.3,29.2794156 C29.4591797,24.9097412 23.0231689,24.9097412 18.9,29.2794156 Z"/>
	</g>


	<g fill="none" transform="translate(392 12)">
		<path fill="none" d="M17.9685,0 C13.2028755,0 8.63244568,1.89289636 5.26344651,5.26344651 C1.89285853,8.63252134 0,13.2028755 0,17.9685 C0,22.7341245 1.89289636,27.3045543 5.26344651,30.6735535 C8.63252134,34.0441415 13.2028755,35.937 17.9685,35.937 C22.7341245,35.937 27.3045543,34.0441036 30.6735535,30.6735535 C34.0441415,27.3044787 35.937,22.7341245 35.937,17.9685 C35.937,13.2028755 34.0441036,8.63244568 30.6735535,5.26344651 C27.3044787,1.89285853 22.7341245,0 17.9685,0 Z"/>
		<polygon fill="#34798B" points="20.457 27.426 17.775 24.744 22.826 19.693 7 19.693 7 16.244 22.826 16.244 17.775 11.193 20.457 8.511 29.914 17.968"/>
	</g>

	<g fill="none" fill-rule="evenodd" transform="scale(0.7) translate(645 13)">
		<path stroke="#D8F9FB" stroke-linecap="round" stroke-width="8" d="M7.5,30 C11.0962358,44 19.7629025,51 33.5,51"/>
		<path fill="#34798B" fill-rule="nonzero" d="M29.3128,0.7128 C45.1212266,0.7128 57.9128,13.5064961 57.9128,29.3128 C57.9128,30.3955781 57.8515781,31.4866234 57.7306984,32.5556602 C57.5207789,34.413543 55.2506539,35.2047352 53.9304734,33.8846664 L47.7787922,27.7328734 C46.9060453,26.8602383 46.9060453,25.4455438 47.7787922,24.5730203 C48.6512039,23.7003852 50.0661219,23.7003852 50.9386453,24.5730203 L53.3322195,26.9665945 C52.1815164,14.9602922 42.065607,5.18155 29.3128,5.18155 C15.9002937,5.18155 5.18155,16.0640734 5.18155,29.3128 C5.18155,42.6512367 15.9761508,53.44405 29.3128,53.44405 C38.1553391,53.44405 46.2800852,48.6155656 50.5165719,40.8428453 C51.1070055,39.7592852 52.4640531,39.3597789 53.547725,39.9502125 C54.6311734,40.5407578 55.0307914,41.8979172 54.4402461,42.9813656 C49.4204992,52.1914594 39.7922422,57.9128 29.3128,57.9128 C13.5042617,57.9128 0.7128,45.1192156 0.7128,29.3128 C0.7128,13.5205727 13.5197906,0.7128 29.3128,0.7128 Z M40.8567472,21.6416292 C41.8211666,22.6228494 41.8210431,24.2135792 40.8566237,25.1946737 L28.4967207,37.7698933 C27.5321778,38.751239 25.9686849,38.7508621 25.0045125,37.7698933 L18.1033145,30.7484725 C17.1388952,29.7672524 17.1388952,28.1765226 18.1033145,27.1954281 C19.0677339,26.2143336 20.6312268,26.214208 21.5955227,27.1954281 L26.7506166,32.4403266 L37.364539,21.6416292 C38.3288349,20.6605347 39.8923278,20.6604091 40.8567472,21.6416292 Z"/>
	</g>
	<g fill="none"  transform="translate(0 0)">
		<text style="fill:black;font-family:Arial;font-size:10px;font-weight:regular;" x="5" y="70">Create group</text>
		<text style="fill:black;font-family:Arial;font-size:10px;font-weight:regular;" x="102" y="70">Secured party</text>
		<text style="fill:black;font-family:Arial;font-size:10px;font-weight:regular;" x="117" y="80">details</text>
		<text style="fill:black;font-family:Arial;font-size:10px;font-weight:regular;" x="220" y="70">Address</text>
		<text style="fill:black;font-family:Arial;font-size:10px;font-weight:regular;" x="215" y="80">for service</text>
		<text style="fill:black;font-family:Arial;font-size:10px;font-weight:regular;" x="339" y="70">Review</text>
		<text style="fill:black;font-family:Arial;font-size:10px;font-weight:regular;" x="448" y="70">Confirmation</text>
	</g>
	
</svg>
