<svg xmlns="http://www.w3.org/2000/svg" width="100" height="100" viewBox="0 0 100 100">
  <g fill="none" fill-rule="evenodd" transform="translate(18 15)">
    <g fill-rule="nonzero" stroke="#35798B" stroke-width="3.6" transform="translate(0 .2)">
      <path stroke-linecap="round" d="M47.8258295,24.7648802 L53.1468687,22.5636106 C53.3662121,22.4707107 53.5494331,22.2874807 53.6423285,22.0681267 C53.7352238,21.8487727 53.7352238,21.5907049 53.6423285,21.3713443 L50.1379749,12.8939458 C50.0450728,12.6745918 49.8618584,12.4913619 49.6425151,12.398462 C49.4231718,12.3055621 49.1651166,12.3055621 48.9457666,12.398462 L43.6247274,14.5997316 C42.5796377,15.0410227 41.423565,14.8010236 40.6339343,13.9932792 C39.8262028,13.1855084 39.6068793,12.047481 40.0275114,11.0023404 L42.2286738,5.68104202 C42.3215692,5.46168801 42.3215692,5.2036202 42.2286738,4.98425959 C42.1357784,4.76489898 41.9525574,4.58167565 41.7332141,4.48877573 L33.2562285,0.984251456 C33.0368852,0.891351536 32.7788299,0.891351536 32.55948,0.984251456 C32.3401367,1.07715138 32.1569223,1.26038131 32.0640203,1.47973531 L29.8628579,6.80103373 C29.4215882,7.84359782 28.4487498,8.48620735 27.3107118,8.48620735 C26.1726738,8.48620735 25.1998552,7.84362425 24.7611421,6.79845721 L22.5599797,1.4771588 C22.4670843,1.25780479 22.2838633,1.07457486 22.06452,0.98167494 C21.8451767,0.88877502 21.5871214,0.88877502 21.3677715,0.98167494 L12.8907859,4.48619922 C12.6714426,4.57910574 12.4882216,4.76232907 12.3953262,4.98168307 C12.3024308,5.20103708 12.3024308,5.45910489 12.3953262,5.6784655 L14.5964886,10.9997639 C15.0377582,12.0449045 14.7977708,13.2010335 13.9900657,13.9907027 C13.1823342,14.7984735 12.0443623,15.0178077 10.9992726,14.5971551 L5.67823337,12.3958855 C5.45889005,12.3029856 5.2008348,12.3029856 4.98148487,12.3958855 C4.76213494,12.4887854 4.57892054,12.6720153 4.48602515,12.8913693 L0.981671546,21.3687678 C0.888776151,21.5881218 0.888776151,21.8461896 0.981671546,22.0655502 C1.07456694,22.2849042 1.25778795,22.4681275 1.47713127,22.5610341 L6.79817053,24.7623037 C7.84326024,25.2035948 8.48583848,26.1764807 8.48583848,27.3119975 C8.48583848,28.4500909 7.84328667,29.4229569 6.79817053,29.8616914 L1.47713127,32.062961 C1.25778795,32.1558609 1.07456694,32.3390908 0.981671546,32.5584448 C0.888776151,32.7777988 0.888776151,33.0358667 0.981671546,33.2552273 L4.48602515,41.7326257 C4.57892054,41.9519797 4.76214155,42.1352097 4.98148487,42.2281096 C5.2008282,42.3210095 5.45888344,42.3210095 5.67823337,42.2281096 L10.9992726,40.02684 C12.0443623,39.5855488 13.200435,39.825548 13.9900657,40.6332924 C14.7796964,41.4410632 15.0171207,42.5790905 14.5964886,43.6242311 L12.3953262,48.9455295 C12.3024308,49.1648835 12.3024308,49.4229514 12.3953262,49.642312 C12.4882216,49.8616726 12.6714426,50.0448959 12.8907859,50.1377958 L21.3677715,53.6423201 C21.6051826,53.7352266 21.8451701,53.7352266 22.06452,53.6423201 C22.2838633,53.5494202 22.4670843,53.3661903 22.5599797,53.1468362 L24.7611421,47.8255378 C25.2024118,46.7803972 26.1752502,46.1377877 27.3107118,46.1377877 C28.4487498,46.1377877 29.4215684,46.7803708 29.8602815,47.8255378 L32.0614439,53.1468362 C32.1543393,53.3661903 32.3375603,53.5494202 32.5569036,53.6423201 C32.7943147,53.7352266 33.0343022,53.7352266 33.2536521,53.6423201 L41.7306377,50.1377958 C41.949981,50.0448959 42.133202,49.861666 42.2260974,49.642312 C42.3189928,49.422958 42.3189928,49.1648902 42.2260974,48.9455295 L40.024935,43.6242311 C39.5836654,42.5790905 39.8236528,41.4229615 40.6313579,40.6332924 C41.4390894,39.8255216 42.5770613,39.6061874 43.622151,40.02684 L48.9431902,42.2281096 C49.1806013,42.3210095 49.4205888,42.3210095 49.6399387,42.2281096 C49.8592887,42.1352097 50.0425031,41.9519797 50.1353985,41.7326257 L53.6397521,33.2552273 C53.7326475,33.0358733 53.7326475,32.7778055 53.6397521,32.5584448 C53.5468567,32.3390842 53.3636357,32.1558609 53.1442923,32.062961 L47.8232531,29.8616914 C46.7781634,29.4204002 46.1355851,28.4475144 46.1355851,27.3119975 C46.1381655,26.1764807 46.7807133,25.2036146 47.8258295,24.7648802 Z M37.3773222,31.475893 C36.2681028,34.1709843 34.1667432,36.2529678 31.4717831,37.3817197 C30.1229119,37.9363492 28.7182479,38.2150839 27.3108727,38.2150839 C25.9034976,38.2150839 24.4765022,37.9363778 23.1499623,37.3817197 C20.4550023,36.2724463 18.3731202,34.1709843 17.2444233,31.475893 C16.1157264,28.7808017 16.1352039,25.8264257 17.2444233,23.1315485 C18.3536427,20.4364572 20.4550023,18.3544737 23.1499623,17.2257218 C25.8449224,16.09697 28.7991545,16.1164484 31.4939005,17.2257218 C34.1888605,18.3349952 36.2707426,20.4364572 37.3994395,23.1315485 C38.5281364,25.8294224 38.48911,28.8004942 37.3771438,31.475893 L37.3773222,31.475893 Z"/>
      <path d="M28.0100104,25.6421611 C27.56726,25.4599488 27.0812891,25.4520394 26.6374145,25.6379073 C26.1925559,25.8241872 25.8418696,26.1648775 25.6583008,26.6107932 C25.4761474,27.0532358 25.4682359,27.5388699 25.6540446,27.9824377 C25.8403638,28.4272244 26.1811777,28.7777882 26.6271675,28.961319 C26.8527293,29.0555796 27.0854677,29.1007652 27.3149404,29.1007652 C27.5452852,29.1007652 27.7747256,29.0539217 27.9954762,28.9642745 C28.4388683,28.7777704 28.7883719,28.4376553 28.9714824,27.9927811 C29.1557492,27.5495089 29.1680586,27.0629577 28.9828777,26.620432 C28.796814,26.1762557 28.4560001,25.825692 28.0100104,25.6421611 Z"/>
    </g>
    <g transform="translate(24.2 26.2)">
      <path fill="#FFF" fill-rule="nonzero" d="M21,0 C28.4631056,0 34.8,6.34223602 34.8,13.8 C34.8,21.2631056 28.457764,27.6 21,27.6 C13.5368944,27.6 7.2,21.257764 7.2,13.8 C7.2,6.33689441 13.542236,0 21,0 Z M12.387167,24 L29.6173156,24 C36.3481814,24 42,32.2027058 42,42.2273359 L42,48 L0,48 L0,42.2273359 C0,32.2031104 5.65226691,24 12.3826844,24 L12.387167,24 Z"/>
      <path fill="#D8F9FB" d="M11.8682462,35.061798 L22.5345287,35.061798 C26.7012551,35.061798 30.2,37.7960333 30.2,41.1375767 L30.2,43.061798 L4.2,43.061798 L4.2,41.1375767 C4.2,37.7961682 7.69902237,35.061798 11.8654713,35.061798 L11.8682462,35.061798 Z"/>
      <circle cx="26.3" cy="21.3" r="9.5" fill="#D8F9FB"/>
      <path stroke="#35798B" stroke-linecap="round" stroke-width="3.694" d="M21.5017058,8 C25.7716317,8 29.3972094,11.654933 29.3972094,15.9527275 C29.3972094,20.2536003 25.7685755,23.905455 21.5017058,23.905455 C17.2317798,23.905455 13.6062021,20.250522 13.6062021,15.9527275 C13.6062021,11.6518547 17.234836,8 21.5017058,8 Z M15.5530439,28.5343339 L27.4500512,28.5343339 C32.0975538,28.5343339 36,32.7948419 36,38.0016624 L36,41 L7,41 L7,38.0016624 C7,32.795052 10.9027557,28.5343339 15.5499488,28.5343339 L15.5530439,28.5343339 Z"/>
    </g>
  </g>
</svg>
