<svg xmlns="http://www.w3.org/2000/svg" viewBox="0 0 586.01 158.89">
  <defs>
    <style>.cls-1,.cls-10,.cls-15,.cls-17,.cls-19,.cls-2{fill:#34798b;}.cls-2{font-size:14px;font-family:Arial-BoldMT, Arial;font-weight:700;}.cls-3{font-size:12px;fill:#65665c;}.cls-10,.cls-19,.cls-3{font-family:ArialMT, Arial;}.cls-4{letter-spacing:-0.07em;}.cls-5{fill:#d8f9fb;}.cls-16,.cls-6,.cls-7,.cls-8,.cls-9{fill:none;}.cls-11,.cls-12,.cls-13,.cls-14,.cls-16,.cls-6,.cls-7,.cls-8,.cls-9{stroke:#34798b;}.cls-13,.cls-14,.cls-16,.cls-6,.cls-9{stroke-linecap:round;}.cls-12,.cls-14,.cls-16,.cls-6,.cls-9{stroke-linejoin:round;}.cls-6{stroke-width:3px;}.cls-11,.cls-13,.cls-7,.cls-8{stroke-miterlimit:10;}.cls-11,.cls-12,.cls-16,.cls-7{stroke-width:2px;}.cls-10{font-size:3.26px;}.cls-11,.cls-12,.cls-13,.cls-14{fill:#fff;}.cls-13,.cls-14{stroke-width:1.5px;}.cls-15{font-size:7px;font-family:BrushScriptMT, Brush Script MT;}.cls-17{font-size:9.08px;font-family:CooperBlack, Cooper Black;}.cls-18{letter-spacing:-0.09em;}.cls-19{font-size:3.51px;}</style>
  </defs>
  <g id="Layer_2" data-name="Layer 2">
    <g id="SPG_Information" data-name="SPG Information">
      <rect class="cls-1" x="182.63" y="77.44" width="190.93" height="16.11"/>
      <polygon class="cls-1" points="407.79 85.49 370.4 66.26 370.4 104.72 407.79 85.49"/>
      <text class="cls-2" transform="translate(260.59 113.91) scale(1.12 1)">Collateral</text>
      <text class="cls-3" transform="translate(282.93 134.12) scale(1.12 1)">
        <tspan class="cls-4">V</tspan>
        <tspan x="7.11" y="0">an</tspan>
      </text>
      <ellipse class="cls-5" cx="322.64" cy="57.37" rx="8.61" ry="8.53"/>
      <ellipse class="cls-5" cx="251.53" cy="57.37" rx="8.61" ry="8.53"/>
      <path class="cls-6" d="M335.74,57.89c10.17.43,9.88-3.38,9.88-3.38v-8.6a15.41,15.41,0,0,0-8.41-13.73,39.37,39.37,0,0,0-7.38-2.83,101.66,101.66,0,0,0-19.51-15.92A10.33,10.33,0,0,0,305,12H240.62A3.33,3.33,0,0,0,237.53,14c-1.8,4.43-5.12,16.3-1.91,38.71a6.55,6.55,0,0,0,6.5,5.58h2.56"/>
      <ellipse class="cls-6" cx="326.1" cy="55.31" rx="9.64" ry="9.56"/>
      <ellipse class="cls-6" cx="254.32" cy="54.88" rx="9.64" ry="9.56"/>
      <line class="cls-6" x1="316.94" y1="58.32" x2="263.96" y2="58.32"/>
      <path class="cls-6" d="M297.67,16.37l1.15,13s8.28,3.06,20.51,2.59"/>
      <text class="cls-2" transform="translate(489.18 114.39) scale(1.12 1)">Grantor</text>
      <text class="cls-3" transform="translate(479.31 130.81) scale(1.12 1)">
        Cupcakes-2-U <tspan x="19.67" y="15">Pty Ltd </tspan>
      </text>
      <rect class="cls-5" x="506.92" y="71.68" width="39.46" height="22.05"/>
      <rect class="cls-7" x="506.54" y="68.78" width="43.66" height="24.8"/>
      <line class="cls-7" x1="528.37" y1="69.45" x2="528.37" y2="93.58"/>
      <ellipse class="cls-1" cx="524.07" cy="82.03" rx="1.54" ry="1.11"/>
      <ellipse class="cls-1" cx="532.64" cy="81.85" rx="1.54" ry="1.11"/>
      <polygon class="cls-8" points="499.66 83.14 480.51 83.14 480.51 76.34 486.19 76.34 499.66 76.34 499.66 83.14"/>
      <ellipse class="cls-1" cx="490.08" cy="71.68" rx="1.54" ry="1.11"/>
      <polyline class="cls-9" points="486.19 76.34 490.08 71.68 493.72 76.34"/>
      <text class="cls-10" transform="translate(484.11 81.19) scale(1.39 1)">Open</text>
      <rect class="cls-7" x="479.2" y="56.72" width="90.08" height="36.85" rx="4.14"/>
      <path class="cls-11" d="M487.26,65.93c6.37,0,11.53-4.87,11.53-10.88H475.73C475.73,61.06,480.9,65.93,487.26,65.93Z"/>
      <path class="cls-11" d="M511.9,65.93c6.36,0,11.52-4.87,11.52-10.88h-23C500.37,61.06,505.53,65.93,511.9,65.93Z"/>
      <path class="cls-11" d="M536.9,65.93c6.36,0,11.52-4.87,11.52-10.88h-23C525.37,61.06,530.53,65.93,536.9,65.93Z"/>
      <path class="cls-11" d="M560.88,65.93c6.36,0,11.53-4.87,11.53-10.88H549.35C549.35,61.06,554.51,65.93,560.88,65.93Z"/>
      <polygon class="cls-12" points="488.87 36.86 556.48 36.86 572.41 54.51 475.73 54.04 488.87 36.86"/>
      <line class="cls-12" x1="499.48" y1="53.4" x2="504.03" y2="36.86"/>
      <line class="cls-12" x1="524.07" y1="54.27" x2="523.89" y2="36.86"/>
      <line class="cls-12" x1="549.35" y1="54.27" x2="540.74" y2="36.86"/>
      <rect class="cls-11" x="488.54" y="19.56" width="67.63" height="16.17"/>
      <ellipse class="cls-13" cx="500.3" cy="18.82" rx="8.72" ry="5.41"/>
      <polygon class="cls-11" points="491.58 20.47 491.09 20.76 494.61 29.43 506 29.43 509.52 20.76 509.02 20.47 491.58 20.47"/>
      <path class="cls-13" d="M496.45,20.87c0-.4,1,6.27,1,6.27"/>
      <path class="cls-13" d="M504.94,20.87c0-.4-1.85,6.27-1.85,6.27"/>
      <path class="cls-14" d="M505.24,13.28h-1.35a1,1,0,0,0,.12-.48,1.43,1.43,0,0,0-1.56-1.24h-.31a.8.8,0,0,0,.29-.6,1,1,0,0,0-1.12-.89h-1a1,1,0,0,0-1.12.89.82.82,0,0,0,.3.6H498a1.43,1.43,0,0,0-1.56,1.24,1,1,0,0,0,.13.48h-1.18a1.43,1.43,0,0,0-1.56,1.25,1.43,1.43,0,0,0,1.56,1.24h9.87a1.43,1.43,0,0,0,1.55-1.24A1.43,1.43,0,0,0,505.24,13.28Z"/>
      <ellipse class="cls-14" cx="496.98" cy="10.87" rx="3.17" ry="2.54"/>
      <path class="cls-9" d="M496.94,9.69s.13-3.26-5.84-4"/>
      <text class="cls-15" transform="translate(506.6 32.59) scale(1.25 1)">Cupcakes-2-U</text>
      <text class="cls-2" transform="translate(2.62 113.91) scale(1.12 1)">Secured Party</text>
      <text class="cls-3" transform="translate(25.75 129.71) scale(1.12 1)">
        <tspan class="cls-4">V</tspan>
        <tspan x="7.11" y="0">ans Inc. </tspan>
        <tspan x="5.89" y="14">Pty Ltd</tspan>
      </text>
      <rect class="cls-5" x="39.77" y="75.51" width="34.26" height="23.71"/>
      <rect class="cls-7" x="11.53" y="51.97" width="92.09" height="47.09" rx="4.14"/>
      <rect class="cls-7" x="39.44" y="68.96" width="37.9" height="30.1"/>
      <rect class="cls-7" x="33.47" y="64.11" width="49.2" height="4.85"/>
      <rect class="cls-7" x="39.44" y="69.28" width="37.9" height="3.83"/>
      <line class="cls-7" x1="58.39" y1="73.11" x2="58.39" y2="99.06"/>
      <ellipse class="cls-1" cx="54.66" cy="86.64" rx="1.34" ry="1.19"/>
      <ellipse class="cls-1" cx="62.1" cy="86.45" rx="1.34" ry="1.19"/>
      <rect class="cls-1" x="25.32" y="43.23" width="1" height="8.74"/>
      <rect class="cls-1" x="87.33" y="42.2" width="1" height="8.74"/>
      <rect class="cls-7" x="1" y="1" width="111.37" height="41.2"/>
      <polygon class="cls-7" points="33.47 87.83 16.85 87.83 16.85 80.52 21.78 80.52 33.47 80.52 33.47 87.83"/>
      <ellipse class="cls-1" cx="25.16" cy="75.51" rx="1.34" ry="1.19"/>
      <polyline class="cls-16" points="21.78 80.52 25.16 75.51 28.32 80.52"/>
      <text class="cls-17" transform="translate(10.5 14.48) scale(1.12 1)">
        <tspan class="cls-18">V</tspan>
        <tspan x="6.47" y="0">ans Inc.</tspan>
      </text>
      <text class="cls-19" transform="translate(19.97 85.74) scale(1.12 1)">Open</text>
      <ellipse class="cls-5" cx="92.59" cy="36.44" rx="3.75" ry="3.71"/>
      <ellipse class="cls-5" cx="61.67" cy="36.44" rx="3.75" ry="3.71"/>
      <path class="cls-16" d="M98.29,36.66c4.42.19,4.3-1.47,4.3-1.47V31.45a6.69,6.69,0,0,0-3.66-6,17.08,17.08,0,0,0-3.21-1.23,44.49,44.49,0,0,0-8.48-6.93,4.5,4.5,0,0,0-2.32-.64h-28a1.45,1.45,0,0,0-1.34.9c-.79,1.93-2.23,7.1-.84,16.84a2.85,2.85,0,0,0,2.83,2.43h1.11"/>
      <ellipse class="cls-16" cx="94.1" cy="35.54" rx="4.2" ry="4.16"/>
      <ellipse class="cls-16" cx="62.88" cy="35.35" rx="4.2" ry="4.16"/>
      <line class="cls-16" x1="90.12" y1="36.85" x2="67.07" y2="36.85"/>
      <path class="cls-16" d="M81.74,18.6l.5,5.65a25.32,25.32,0,0,0,8.91,1.13"/>
    </g>
  </g>
</svg>