<svg xmlns="http://www.w3.org/2000/svg" width="100" height="100" viewBox="0 5 100 100">
  <g fill="none" fill-rule="evenodd" transform="translate(14 16)">
    <g fill="#D8F9FB" transform="translate(2.816 7.366)">
      <circle cx="34.418" cy="11.12" r="11.12"/>
      <path fill-rule="nonzero" d="M29.1983296 28.6023162C30.7745074 28.6004496 32.3463235 28.7871243 33.8881536 29.1598515 30.3819623 26.6907668 26.3392924 25.3939998 22.2197491 25.4164006 9.92381748 25.4481353-.0277471905 36.6467532 0 51.8912352L7.11821014 51.8750568C8.38852979 38.2876244 17.7818082 28.634051 29.1983296 28.6023162L29.1983296 28.6023162zM47.3748911 47.4016825C47.3748911 43.6135451 49.4436265 40.1271642 52.7685676 38.3125796 56.0935087 36.4975906 60.1444283 36.6436149 63.3302404 38.6932136 61.2036694 35.389262 57.3913723 33.5734639 53.4868616 34.0046604 49.5819467 34.4358568 46.2578145 37.0400244 44.9033287 40.7278459 43.5488428 44.416072 44.3977726 48.5528879 47.0954197 51.4094632 47.6693269 52.0178303 48.3160343 52.5537921 49.0209817 53.004 47.9423272 51.3350353 47.3704422 49.3889883 47.3748911 47.4016825L47.3748911 47.4016825z"/>
    </g>
    <path fill="#34798B" fill-rule="nonzero" d="M28.5931296.5295024C36.4889381.5295024 42.8896944 6.93009529 42.8896944 14.8260672 42.8896944 22.721703 36.4887654 29.1226318 28.5926334 29.1226318 20.700102 29.1152354 14.3039619 22.7189319 14.2965648 14.8260672 14.2965648 6.93009529 20.6973211.5295024 28.5931296.5295024zM28.5931296 4.19345785C22.7238722 4.20024285 17.9673054 8.95680965 17.9605202 14.8260671 17.9605202 20.6985114 22.7206854 25.4586765 28.5931296 25.4586765 34.4655738 25.4586765 39.225739 20.6985114 39.225739 14.8260671 39.225739 8.95362301 34.4655737 4.19345785 28.5931296 4.19345785zM28.0643719 31.4527159L28.0172019 31.4527134C20.6289233 31.4684598 13.7773052 34.3419561 8.70269217 39.5591788 3.54941943 44.8222699.725632674 52.0189394.74123912 59.8303564.745103309 60.3361597.942699332 60.8193674 1.29320219 61.1815603 1.65675367 61.5449822 2.14651997 61.7450612 2.6554673 61.7402159L42.1753225 61.6596263 42.1753225 57.8392436 4.63102799 57.9180315 4.61087646 58.2542163C4.9424286 52.0572208 7.34160199 46.4183605 11.4355134 42.2322949 15.6744302 37.8737513 21.3759402 35.4164426 27.531739 35.2790835L28.065803 35.2730678C33.9245677 35.2424959 37.705006 36.8358836 42.1402037 41.0925571L42.3687014 41.3118575 45.024576 38.56189 44.7946433 38.3412115C39.650128 33.4037487 34.9182621 31.4218422 28.0643719 31.4527159z"/>
    <path fill="#34798B" fill-rule="nonzero" d="M28.0561085,25.3256065 L23.4996434,20.6603632 C24.9311545,18.5282137 25.777876,15.9274072 25.777876,13.1966404 C25.777876,5.93352302 19.9856975,0 12.888938,0 C5.79517271,0 0,5.93045729 0,13.1966404 C0,20.4597577 5.79217846,26.3932808 12.888938,26.3932808 C15.9477581,26.3932808 18.7472503,25.2608263 20.9590886,23.4619085 L25.4494199,28.0594391 C25.8409895,28.4603568 26.2961413,28.5931296 26.7512671,28.5931296 C27.2064059,28.5931296 27.6615186,28.3926708 28.0531143,28.0594391 C28.7727103,27.2602163 28.7727103,26.0600491 28.0556574,25.3258731 L28.0561085,25.3256065 Z M3.71286815,13.1966404 C3.71286815,7.99769325 7.8142075,3.79817451 12.8921926,3.79817451 C17.9699173,3.79817451 22.071517,7.99742666 22.071517,13.1966404 C22.071517,18.3958541 17.9701777,22.5951063 12.8921926,22.5951063 C7.81446786,22.5951063 3.71286815,18.3282081 3.71286815,13.1966404 L3.71286815,13.1966404 Z" transform="translate(43.606 37.377)"/>
  </g>
</svg>
