<svg xmlns="http://www.w3.org/2000/svg" viewBox="0 0 39.79 39.79"><defs><style>.cls-1{fill:#d8f9fb;}.cls-2{fill:#35798b;}</style></defs><g id="Layer_2" data-name="Layer 2"><g id="Layer_1-2" data-name="Layer 1"><path class="cls-1" d="M16.14.68C14.76.49,12.26.6,12.05,2.05s-.11,4.12,1.27,4.31c8.26,1.16,14,9.16,12.78,17.84-.21,1.44,2,3.68,3.35,3.87s3.52-2.16,3.72-3.61C34,18.9,33.33,12.27,30.49,8,27.41,3.47,21.86,1.49,16.14.68Z"/><path class="cls-2" d="M16.89.31A14,14,0,0,1,30.42,23.19a9.22,9.22,0,0,0-2.36,6h0v2.33a3.52,3.52,0,0,1-2.42,3.33,5.82,5.82,0,0,1-11.49,0,3.51,3.51,0,0,1-2.41-3.33h0V29.22a9.08,9.08,0,0,0-2.3-5.95,14,14,0,0,1,7.45-23ZM23.19,35H16.6a3.45,3.45,0,0,0,6.59,0Zm2.54-4.65H14.07v1.16a1.16,1.16,0,0,0,1.16,1.17h9.33a1.17,1.17,0,0,0,1.17-1.17h0ZM31.55,14a11.66,11.66,0,1,0-20.37,7.73A11.53,11.53,0,0,1,14,28.05H25.79a11.62,11.62,0,0,1,2.88-6.39A11.65,11.65,0,0,0,31.55,14ZM2.33,20.5A1.17,1.17,0,1,1,4,22.15H4L2.33,23.8A1.17,1.17,0,1,1,.68,22.15h0Zm33.48,0a1.16,1.16,0,0,1,1.65,0h0l1.65,1.65a1.17,1.17,0,0,1-1.65,1.65h0l-1.65-1.65A1.18,1.18,0,0,1,35.81,20.5ZM3.5,14a1.17,1.17,0,0,1,0,2.33H1.17a1.17,1.17,0,1,1,0-2.33H3.5Zm35.13,0a1.17,1.17,0,0,1,0,2.33H36.29a1.17,1.17,0,0,1,0-2.33h2.34ZM19.89,4.66A9.34,9.34,0,0,1,29.22,14a1.17,1.17,0,0,1-2.33,0,7,7,0,0,0-7-7,1.17,1.17,0,0,1,0-2.33ZM.68,6.51a1.16,1.16,0,0,1,1.65,0h0L4,8.16A1.16,1.16,0,0,1,4,9.81a1.18,1.18,0,0,1-1.65,0h0L.68,8.16A1.18,1.18,0,0,1,.68,6.51Zm36.78,0a1.16,1.16,0,0,1,1.65,0,1.18,1.18,0,0,1,0,1.65h0L37.46,9.81a1.17,1.17,0,0,1-1.65-1.65h0Z"/></g></g></svg>