<svg xmlns="http://www.w3.org/2000/svg" width="100" height="100" viewBox="0 0 100 100">
  <g fill="none" fill-rule="evenodd" transform="translate(16 17)">
    <rect width="37" height="32" x="30.3" y="18.093" fill="#D8F9FB" rx="2.73"/>
    <rect width="5.605" height="5.605" x="14.959" y="24.768" fill="#34798B" fill-rule="nonzero"/>
    <rect width="5.605" height="5.605" x="14.959" y="34.576" fill="#34798B" fill-rule="nonzero"/>
    <rect width="5.605" height="5.605" x="14.959" y="44.384" fill="#34798B" fill-rule="nonzero"/>
    <rect width="5.605" height="5.605" x="24.768" y="44.384" fill="#34798B" fill-rule="nonzero"/>
    <rect width="5.605" height="5.605" x="34.576" y="44.384" fill="#34798B" fill-rule="nonzero"/>
    <path fill="#34798B" fill-rule="nonzero" d="M44.0505732,15.2595946 L7.10505732,15.2595946 C3.67362197,15.2595946 0.891894,18.0413226 0.891894,21.4727579 L0.891894,58.4182738 C0.891894,61.8497092 3.67362197,64.6314371 7.10505732,64.6314371 L44.0505732,64.6314371 C47.4820085,64.6314371 50.2637365,61.8497092 50.2637365,58.4182738 L50.2637365,21.4727579 C50.2637365,18.0413226 47.4820085,15.2595946 44.0505732,15.2595946 Z M7.10505732,19.4758066 L44.0505732,19.4758066 C45.153459,19.4758066 46.0475245,20.3698722 46.0475245,21.4727579 L46.0475245,58.4182738 C46.0475245,59.5211596 45.153459,60.4152251 44.0505732,60.4152251 L7.10505732,60.4152251 C6.00217156,60.4152251 5.108106,59.5211596 5.108106,58.4182738 L5.108106,21.4727579 C5.108106,20.3698722 6.00217156,19.4758066 7.10505732,19.4758066 Z"/>
    <path fill="#34798B" fill-rule="nonzero" d="M56.3657452,0.891894 C59.7209264,0.891894 62.4549553,3.55136331 62.5748108,6.87728089 L62.5789085,7.10505732 L62.5789085,44.0505732 C62.5789085,47.4057544 59.9194392,50.1397833 56.5935216,50.2596388 L56.3657452,50.2637365 L48.1456084,50.2637365 L48.1456084,46.0475245 L56.3657452,46.0475245 C57.4184997,46.0475245 58.2809863,45.2328904 58.3572191,44.199608 L58.3626965,44.0505732 L58.3626965,7.10505732 C58.3626965,6.05230273 57.5480624,5.18981613 56.51478,5.11358337 L56.3657452,5.108106 L19.4202293,5.108106 C18.3674747,5.108106 17.5049881,5.92274012 17.4287553,6.9560225 L17.423278,7.10505732 L17.423278,17.1341854 L13.207066,17.1341854 L13.207066,7.10505732 C13.207066,3.74987609 15.8665353,1.0158472 19.1924528,0.895991682 L19.4202293,0.891894 L56.3657452,0.891894 Z"/>
  </g>
</svg>
