<svg xmlns="http://www.w3.org/2000/svg" width="85" height="85" viewBox="0 0 85 85">
  <g fill="none" fill-rule="evenodd" transform="translate(15 17)">
    <rect width="45.32" height="15.862" x="9.064" y="10.197" fill="#D8F9FB"/>
    <path fill="#34798B" fill-rule="nonzero" d="M20.3884235,36.6988437 L27.3203919,36.6988437 L27.3203919,40.7764487 L20.3884235,40.7764487 L20.3884235,36.6988437 Z M12.7426651,36.189392 C11.3350011,36.189392 10.1942117,37.3301814 10.1942117,38.7378453 C10.1942117,40.145111 11.3350011,41.2862987 12.7426651,41.2862987 C14.1503291,41.2862987 15.2911185,40.145111 15.2911185,38.7378453 C15.2911185,37.3301814 14.1503291,36.189392 12.7426651,36.189392 Z M40.9803887,23.7522386 L20.3884235,23.7522386 L20.3884235,27.8298436 L40.9803887,27.8298436 L40.9803887,23.7522386 Z M10.1942117,25.7912403 C10.1942117,27.1989042 11.3350011,28.3396936 12.7426651,28.3396936 C14.1503291,28.3396936 15.2911185,27.1989042 15.2911185,25.7912403 C15.2911185,24.3835763 14.1503291,23.2427869 12.7426651,23.2427869 C11.3350011,23.2427869 10.1942117,24.3835763 10.1942117,25.7912403 Z M40.9803887,11.5194234 L20.3884235,11.5194234 L20.3884235,15.5970285 L40.9803887,15.5970285 L40.9803887,11.5194234 Z M12.7426651,11.0095734 C11.3350011,11.0095734 10.1942117,12.1507611 10.1942117,13.5580268 C10.1942117,14.9656908 11.3350011,16.1068785 12.7426651,16.1068785 C14.1503291,16.1068785 15.2911185,14.9656908 15.2911185,13.5580268 C15.2911185,12.1507611 14.1503291,11.0095734 12.7426651,11.0095734 Z M4.07760501,46.0776938 L4.07760501,6.11660672 C4.07760501,4.99214845 4.99214845,4.07760501 6.11660672,4.07760501 L46.0776938,4.07760501 C47.2017537,4.07760501 48.1162972,4.99214845 48.1162972,6.11660672 L48.1162972,29.1554536 L52.1939022,29.1554536 L52.1939022,6.11660672 C52.1939022,2.74402861 49.4502719,0 46.0776938,0 L6.11660672,0 C2.74402861,0 0,2.74402861 0,6.11660672 L0,46.0776938 C0,49.4502719 2.74402861,52.1939022 6.11660672,52.1939022 L29.6649053,52.1939022 L29.6649053,48.1162972 L6.11660672,48.1162972 C4.99214845,48.1162972 4.07760501,47.2017537 4.07760501,46.0776938 Z M50.7487296,53.3484115 L45.264722,48.1481628 C43.8909153,48.9691009 42.2860827,49.4415088 40.572907,49.4415088 C35.5138408,49.4415088 31.3979969,45.325665 31.3979969,40.266997 C31.3979969,35.2079308 35.5138408,31.0920869 40.572907,31.0920869 C45.631575,31.0920869 49.7474188,35.2079308 49.7474188,40.266997 C49.7474188,42.1387042 49.1833972,43.8809572 48.2174705,45.3340297 L53.6321704,50.4649707 L50.7487296,53.3484115 Z M40.572907,45.3639038 C43.3834552,45.3639038 45.6698138,43.0775452 45.6698138,40.266997 C45.6698138,37.4564489 43.3834552,35.169692 40.572907,35.169692 C37.7623589,35.169692 35.475602,37.4564489 35.475602,40.266997 C35.475602,43.0775452 37.7623589,45.3639038 40.572907,45.3639038 Z"/>
  </g>
</svg>
