<svg xmlns="http://www.w3.org/2000/svg" width="95" height="95" viewBox="0 0 95 95">
  <g fill="none" fill-rule="evenodd" transform="translate(12 12)">
    <path fill="#34798B" fill-rule="nonzero" d="M35.5173007,13.041674 L21.9183426,0.467325049 C21.406019,-0.00707868138 20.662397,-0.133002094 20.0242315,0.148127153 C19.386021,0.42632516 18.9703404,1.05883598 18.9703404,1.75581161 L18.9703404,7.63905959 C9.49341424,8.24817296 -5.45547607e-12,13.8736816 -5.45547607e-12,28.1644933 C-5.45547607e-12,28.9375613 0.509400705,29.6199182 1.25009986,29.8454213 C1.99077654,30.0679857 2.79001604,29.7809963 3.21743328,29.1367432 C3.25256423,29.0840311 6.77152415,23.8509136 10.9698511,22.1495194 L10.9727785,22.1495194 C13.5226675,21.1772621 16.2512278,20.7555682 18.9740172,20.916674 L18.9740172,26.9082504 C18.9769454,27.6052186 19.3897354,28.2348056 20.0279084,28.5159349 C20.6690492,28.7941329 21.4126862,28.6682095 21.9249424,28.196737 L35.5179047,15.622388 C35.877998,15.2914727 36.08,14.8229314 36.08,14.3338415 C36.08,13.8447516 35.877998,13.3792015 35.5179047,13.045295 L35.5173007,13.041674 Z M22.4834357,22.8901938 L22.4834357,19.3233759 C22.4834357,18.4682931 21.8686459,17.7390814 21.0284334,17.5926692 C19.9891568,17.4345322 18.9410365,17.3613261 17.8900682,17.3701048 C15.0708232,17.3496056 12.2749614,17.867936 9.64900221,18.8928508 C7.59383204,19.8035596 5.72310406,21.0833349 4.13634661,22.6764006 C6.80045332,12.0287241 17.2166781,11.097624 20.7301482,11.097624 L20.7272208,11.097624 C21.6991959,11.097624 22.483806,10.3098624 22.483806,9.34052876 L22.483806,5.77371081 L31.7351445,14.3305354 L22.4834357,22.8901938 Z" transform="translate(36 44)"/>
    <rect width="31.5" height="30.45" x="11.55" y="23.1" fill="#D8F9FB"/>
    <path fill="#34798B" fill-rule="nonzero" d="M13.387375,30.515625 L40.1624107,30.515625 L40.1624107,34.584375 L13.387375,34.584375 L13.387375,30.515625 Z M13.387375,14.240625 L40.1624107,14.240625 L40.1624107,18.309375 L13.387375,18.309375 L13.387375,14.240625 Z M13.387375,38.653125 L31.2373988,38.653125 L31.2373988,42.721875 L13.387375,42.721875 L13.387375,38.653125 Z M13.387375,22.378125 L31.2373988,22.378125 L31.2373988,26.446875 L13.387375,26.446875 L13.387375,22.378125 Z M53.55,2.034375 C53.55,0 51.315891,0 51.315891,0 L2.23403758,0 C2.23403758,0 0,0 0,2.034375 L0,63.065625 C0,65.1 2.23403758,65.1 2.23403758,65.1 L31.8442807,65.1 C31.8442807,63.5191124 31.8442807,62.7912658 31.8442807,61.03125 L4.46243455,61.03125 L4.46243455,4.06875 L49.087494,4.06875 L49.087494,39.6881937 C50.8700793,39.6881937 52.102543,39.6881937 53.55,39.6881937 L53.55,2.034375 Z"/>
  </g>
</svg>
