<svg xmlns="http://www.w3.org/2000/svg" width="100" height="100" viewBox="0 -10 100 100">
  <g fill="none" transform="matrix(-1 0 0 1 96 29)">
    <path fill="#D8F9FB" d="M70.5119019,43.1685346 L35.6018162,43.4451004 C25.7320874,43.5232907 17.3389956,35.38088 13.9691852,23.8329659 L71.621539,36.253162 L70.5119019,43.1685346 Z" transform="rotate(-6 42.795 33.64)"/>
    <path fill="#34798B" d="M91.3110528,14.1046581 C91.0701312,13.6971125 90.6777683,13.4259291 90.236937,13.3617927 L67.5118429,10.0746568 C66.6921416,9.95794009 65.9210863,10.587363 65.8090587,11.4864284 C65.6970311,12.3854939 66.2816696,13.2138745 67.1104254,13.3336728 L70.3404069,13.8003471 L70.3404069,17.9749924 L62.7653164,17.0940315 L62.7653164,8.91423063 L65.540796,4.39771709 C65.8438565,3.90465634 65.8786543,3.27350005 65.6332943,2.74596357 C65.3863364,2.21669366 64.8970367,1.87155114 64.3516345,1.84362387 L32.5365027,0.200074941 C32.0258983,0.195144578 31.5305622,0.433585676 31.2321178,0.887163048 L23.6570273,12.3918497 C23.626668,12.4378816 23.6206316,12.4937361 23.5948884,12.5415014 L2.32562061,10.0698418 C1.89544168,10.0205357 1.47112156,10.1701873 1.15154993,10.4806615 C0.833398611,10.7930617 0.65,11.2368164 0.65,11.7034907 C0.65,26.2027511 16.2818466,38 35.4952035,38 L83.9754634,38 C84.6405275,38 85.2283617,37.5298589 85.4238331,36.8395738 L91.483799,15.4736721 C91.6139356,15.0120054 91.5500704,14.5106628 91.3110528,14.1046581 Z M73.3703011,18.2775699 L73.3703011,14.2377459 L79.430267,15.1136992 L79.430267,19.0302579 L73.3610691,18.3251425 C73.3612466,18.308964 73.3703011,18.2941336 73.3703011,18.2775699 Z M47.528851,4.26655522 L61.5365634,4.9897752 L59.9896592,7.50438504 C59.8245472,7.77383503 59.7350671,8.09278371 59.7350671,8.41654743 L59.7350671,16.7427257 L46.0939743,15.1566494 L47.528851,4.26655522 Z M33.218078,3.52696409 L44.4881268,4.1088143 L43.0852074,14.7571931 C43.0836095,14.7735643 43.0898234,14.7901281 43.0882255,14.8064992 L27.0199861,12.9394168 L33.218078,3.52696409 Z M82.8557199,34.7130567 L35.4952035,34.7130567 C22.105507,34.7130567 10.6369687,28.6927079 5.94956296,20.2039737 L84.2920169,29.6478205 L82.8557199,34.7130567 Z M85.1994228,26.4510149 L4.4784682,16.7211543 C4.1572987,15.6839933 3.89968846,14.6289203 3.78162449,13.5459201 L86.1449997,23.1178471 L85.1994228,26.4510149 Z M87.0524056,19.9179599 L82.4603388,19.3838749 L82.4603388,15.5526388 L88.0613643,16.3629148 L87.0524056,19.9179599 Z"/>
  </g>
</svg>
