<?xml version="1.0" encoding="UTF-8"?><svg id="White" xmlns="http://www.w3.org/2000/svg" viewBox="0 0 209.76 209.76"><defs><style>.cls-1{fill:#fff;}.cls-2{fill:none;stroke:#fff;stroke-linecap:round;stroke-linejoin:round;stroke-width:12px;}</style></defs><circle class="cls-2" cx="104.88" cy="104.88" r="62.73"/><path class="cls-1" d="M116.08,94.93c0,1.52-.72,3.32-1.29,5.26-1.14,3.32-10.29,28.5-11.72,32.51-.14,.28,.29,1.39,.86,1.39,1.86,0,6.58-2.63,9.29-4.84,1.14-.83,2.43-1.39,3-1.39s1.43,.69,1.43,1.66c0,3.04-1.86,5.12-3.43,7.06-5,6.09-16.15,12.18-23.3,12.18-2.29,0-5.57-3.18-5.57-5.26,0-1.38,.57-3.88,1.43-5.95,.86-1.8,8.15-21.72,11.72-32.24,1-2.91,0-3.74-.43-3.74-2.14,0-7.72,4.01-10.43,6.09-.57,.42-2.29-1.8-2.29-2.49,0-1.52,.71-3.04,1.86-4.43,4.29-5.4,15.72-12.45,24.01-12.45,1.72,0,4.86,3.18,4.86,6.64Zm3.72-26.01c0,2.91-2.72,7.33-4,8.16s-3.43,1.52-5.15,1.52c-3.43,0-7.43-2.49-7.43-6.92,0-4.71,3-8.03,4.43-9.13,1.29-.83,3-1.24,4.43-1.24,6.29,0,7.72,5.4,7.72,7.61Z"/></svg>